<svg xmlns="http://www.w3.org/2000/svg" version="1.1" width="600px" height="600px" viewBox="0 0 200 200" style="overflow:hidden!important;"><g id="svga-group-wrapper"><g id="svga-group-backs-single"><path id="SvgjsPath9596" d="M0 0h200v200H0V0z" fill="#270051" stroke-width="none" opacity="1"></path><path id="SvgjsPath9597" d="M75.9 12.6C50 52.8 18 117.1 50.4 133.9S129.8 94.2 151 97.2s12.5 39.3-9.9 65.2c-17.2 19.8-61.2 31.1-86.7 37.6H200V0H80.6c-.2 3.7-1.7 7.9-4.7 12.6zM39.6 161.1c-15.5-5.6-22-17.7-15.1-47.5C28.7 95.6 16 84.2 0 83.2V200h37.5c11-12.4 13.5-34.7 2.1-38.9z" fill="#13004f" stroke-width="none" opacity="1"></path><path id="SvgjsPath9598" d="M98.7 29.5c-9.3-15.5-28.5-24.1-46-19-7.4 2.2-14.6 6.2-19.8 12-5.5 6.1-8.1 12.2-9.3 20.2-.7 4.4 5.8 8.3 8 3.4 3.6-8.1 11.7-15.6 20.1-18.4 4.6-1.5 9.7-1.9 14.3-.2 4.5 1.6 8.1 5.9 11.4 9.2 3.4 3.5 4.8 7.1 4.2 12-.4 3.9-1.9 8.9-4.9 11.6-2.9 2.5-6.9 3.1-10.5 2.5-2.4-.4-4.9-1.2-7.2-2-2.6-.9-4.5-2.8-7.3-3.2-2.9-.4-6.6.7-7.2 4.1-1.5 8.5 6.3 17 13.6 20.3 9 4.2 20 3.3 28.4-1.8 16.1-9.8 21.9-34.5 12.2-50.7zM200 107.6c-4.1 3.3-7.7 7.1-10.7 11.2-6.3 8.8-10.7 22.6-1.5 31.1 3.5 3.3 7.8 4.7 12.2 5v-47.3zm-73 58.2c-2.5-.7-5.1-1.1-7.7-1.2.3-.4.7-.8 1-1.3 4.1-5.4 9.2-12.6 9.1-19.7-.4-17.7-24.9-18.4-37.7-17.5-15 1.1-29.3 5.9-42.5 13-6.2 3.3-12 7.2-17.7 11.4-4.8 3.5-9.8 7.1-13.4 11.9-.3.2-.5.5-.8.7-3.5 3.1-7.3 6.7-8.3 11.4-1.2 5.5.6 11.4 5.5 14.4 8.4 5.3 21.2 2.1 30.4.6 4-.6 7.9-1.4 11.8-2.2 3.8 3.1 9.2 4.9 13.7 5.5 10.1 1.4 21-.2 28.8-7.2 4.6.6 9.8-.1 14.2-.2 1.4 0 2.9-.1 4.3 0-1 1-2 2-2.9 3-3.7 3.9-7.3 7.6-10.5 11.6h28.4c4.5-4.6 8.7-9.9 9-16.3.4-8.9-6.6-15.6-14.7-17.9zm-.1-122.4c-4.2 11.8-.1 24.1 12 28.7 10.6 4.1 23.2.7 33.2-3.4 9.9-4 19.3-9.1 27.8-15.4V0h-27.2c-9.6 4.4-18.5 10.3-26.6 17.2-8.2 7.1-15.5 15.8-19.2 26.2z" fill="#0a0035" stroke-width="none" opacity="1"></path><path id="SvgjsPath9599" d="M200 145c-1.6 1.1-3.1 2.2-4.6 3.2-22.9 15.8-46.9 31.1-65.8 51.8h.4c2.7-3 5.6-5.9 8.5-8.7 18.6-17.7 40.5-31.3 61.5-45.9v-.4zM10.9 200c2-3.4 4.2-6.6 6-9.4 15.4-22.6 36.5-40.8 58.9-56.3 26.9-18.7 56-33.8 83.2-51.9 14.4-9.5 29.4-20 41-33.1v-.5c-12.4 14.1-28.8 25.2-44.2 35.3-25.5 16.6-52.3 30.8-77.4 48-21.2 14.5-41.3 31.1-57 51.7-3.7 4.8-7.9 10.3-11.2 16.2h.7zm73.2-7.8c20.7-19.7 40.2-40.8 62.6-58.7 16.1-12.9 33.9-24.4 53.3-31.6v-.3c-8.6 3.2-16.9 7.3-24.9 11.9-38.6 22.4-67.1 56.9-99.8 86.6h.4c2.9-2.7 5.6-5.3 8.4-7.9zM0 154.1v.6c15.9-14.9 36.8-25.3 57.4-31.9 33.6-11 69.9-15 102.6-28.8-50.6 20.8-114.9 20.3-156.8 57.2-1.1 1-2.2 1.9-3.2 2.9zm200-85.3c-7.1 6.6-15.1 12.3-23.5 17.1-5.4 3.1-10.9 5.7-16.5 8.1 14.8-6.1 28.4-14 40-25.2zM144.1 0c-.3 1.5-.6 2.9-1.2 4.3-5.5 14.8-21.3 24.1-34.8 30.6C93.2 42.2 77 46.6 60.5 47.8c-16.4 1.3-34.6.3-48.9-8.4C7.1 36.7 3.1 33.1 0 28.9v.8c1.1 1.4 2.3 2.7 3.5 4C16.6 46.4 36 49 53.5 48.6c18.9-.5 37.7-5 54.7-13.2 14.2-7 31.5-17.4 35.8-33.8.1-.5.3-1.1.4-1.6h-.3z" fill="#49006b" stroke-width="none" opacity="1"></path><path id="SvgjsPath9600" d="M55.2 17.1c20.4 0 36.9 16.5 36.9 36.9S75.6 90.9 55.2 90.9 18.3 74.4 18.3 54s16.5-36.9 36.9-36.9z" fill="#b74513" stroke-width="none" opacity="1"></path><path id="SvgjsPath9601" d="M74.6 130.2c16.2 0 29.4 13.2 29.4 29.4S90.8 189 74.6 189s-29.4-13.2-29.4-29.4 13.2-29.4 29.4-29.4z" fill="#1350bc" stroke-width="none" opacity="1"></path><path id="SvgjsPath9602" d="M145.8 29c11.6 0 21 9.4 21 21s-9.4 21-21 21-21-9.4-21-21 9.4-21 21-21z" fill="#48a1af" stroke-width="none" opacity="1"></path><path id="SvgjsPath9603" d="M63.2 21.2c0 7.9-3 17-10.2 24.2s-24.2 22-9.2 20.1S60.4 43.7 67 37.1c5.7-5.7 10.3-9.5 15.3-8.2-5.4-5.8-12.7-9.9-20.9-11.3 1.1 1 1.8 2.2 1.8 3.6zM21.7 69.3c1.5-3.1 2-9 3.8-11.7 2.6-3.9 15.9-17.5 18.3-24 2.4-6.5 3.3-13.5.2-8.3s-2 6.3-7.8 12-9.6 15-8.9 8.1c.6-7 3.9-13.3 7.2-15.9s7.2-3.9 8.1-7.6c.3-1.3.2-2-.1-2.4-14 5.2-24 18.7-24 34.6-.1 5.4 1 10.6 3.2 15.2zm44.4 20c1.7-5.5 4.6-11.8 7.4-16.8 6.3-11.1 10.9-35.3 6.3-23.8-4.6 11.6-5.2 18.5-13.7 26-8.5 7.4-14.4 9.2-17.5 9.6s6.8-7 8.7-9.2c2-2.2 4.6-7.8-1.5-3.3S49 77.9 44 80.3c-4.5 2.2-8.2-.3-11.9 2.4 6.3 5.1 14.3 8.1 23.1 8.1 3.8.1 7.5-.5 10.9-1.5z" fill="#c62500" stroke-width="none" opacity="1"></path><path id="SvgjsPath9604" d="M58.1 46.4c-3.4 4.2-5.3 4.4-8.5 8.9S44 62.6 47 61.4c3-1.2 6.4-3.7 8.3-7.4s2.8-7.6 2.8-7.6zM21 59.4c1-4 .2-6.3 1.6-8.3S26 45 26 45s-2.2 6.1-2.8 8.3-2.2 6.1-2.2 6.1zm69.5-1.7c-1 7.5-8.7 15.3-12.1 17.8-3.4 2.6-7.9 9.7-5.7 7.9s5.3-5.9 8.5-7.9 4.9-3.2 6.9-6.5c.5-.9 1.2-1.8 1.9-2.8 1.3-3.8 2.1-7.9 2.1-12.1 0-4.4-.8-8.6-2.2-12.5.3 4.8 1.3 10.7.6 16.1zM58.3 86.8c-3.4 2.5-6.3 3-10.7 3.3 2.5.5 5 .8 7.7.8 1.8 0 3.6-.1 5.3-.4 1.5-1.9 3-4.2 5-6.5 4.2-4.8 6.5-11.7 5.7-11.9-.8-.2-8.1 11.1-13 14.7zM84 30.9c-6.3 1.5-12.6 6.1-15.4 8.6-3.6 3.2-6.3 15.8-12.5 24.7s-18 4.6-20 1.2 1.2-3.4 3.4-8.1 5.9-6.5 9.3-9.5c3.4-3 10.1-15.2 11.7-20 1.3-4 1-7.4-.5-10.3-.3 0-.6-.1-1-.1-.1 1.6-.3 4.2-.5 6.7-.4 4-4.2 12.3-7.3 16.8C48 45.4 36.9 55.1 33.9 59c-3 4-4.9 12.7 2 15.2s19.4-3.2 22.2-6.9S68.4 45.2 70.3 41c1.4-2.8 9.5-6.8 14.5-9-.2-.4-.5-.8-.8-1.1zm2.8 4c-5.6 2.9-11.3 5.2-13.5 12.1-2.6 7.9-1.6 7.7-3.8 13.7s-5.7 10.9-3 8.1c2.7-2.8 6.5-17.4 7.7-20.6s2-6.1 4.6-7.9c2.3-1.6 6.9-3.4 8.5-4.4-.1-.4-.3-.7-.5-1zM49 17.9c-.4 3.6 1 3.8 1.6 8.5s-.2 5.5-1 9.1-5.7 7.1-8.1 9.7-8.9 7.9-10.5 10.1-3.4 11.1-3.6 15.8c-.1 1.8-.6 3.8-1.3 5.5.3.4.7.9 1.1 1.3 1.2-5.9 2.7-17.4 4.6-21.5 2.2-4.8 8.3-8.1 15.6-15s3.8-7.1 5.7-12.7c1.4-3.9.8-8.2-.1-11.6-1.4.1-2.7.2-4 .5v.3zM18.4 53.5c1-1.9 2-4.2 2.7-6.7 1.8-6.9 2.8-5.2 6.7-12.3 2.4-4.3 4.3-7.4 5-9.8-8.6 6.7-14.3 17.1-14.4 28.8z" fill="#d66c03" stroke-width="none" opacity="1"></path><path id="SvgjsPath9605" d="M30.2 81.6s-4 10.9-5 17.3 3.3 18.8 32.7-15.3 37.7-64.8 35.5-70.4S78 17.7 78 17.7 88.1 7.4 95 9.5c6.8 2.1-.7 23.8-13.7 45.7s-31.8 45-48 52.7-12.2-9.1-3.1-26.3z" fill="#841000" stroke-width="none" opacity="1"></path><path id="SvgjsPath9606" d="M30.2 82.4s-8.4 18.3-4.5 23.7c3.5 4.8 26.4-11.9 41.7-35.2s29.7-51.3 27.3-58.4-20.2 7.8-20.2 7.8 12.2-7.8 16.2-7.8-.7 13.7-4.9 22.4-20 35.1-32 49.4-25.9 22.1-27.1 18.4c-1.2-3.8.9-14.6 3.5-20.3z" fill="#ffb852" stroke-width="none" opacity="1"></path><path id="SvgjsPath9607" d="M162.4 62.8c-4.5 3.6-9.8 6.4-15.5 6.7 1.5-1.4 2.9-2.9 4.2-4.4 4.5-5.1 9.1-8.3 14.8-11.7l.6-.3c.1-.4.1-.8.1-1.2-1.7 1.2-3.6 2-5.5 3-.5.3-1 .5-1.4.8l3.9-3c1-.8 2.1-1.5 3.1-2.2v-.2c0-.5 0-.9-.1-1.4-3.7 3.5-8.4 6.8-12.5 9.5-6.9 4.5-15.2 4.2-22.7 6.9 0 0 0-.1-.1-.1 3.2-2.3 6.8-4.3 9.6-6.3 5.6-4 11-8.4 15.4-13.6 1.9-2.3 3.8-5.5 5-8.9l-1.2-1.2c-3.1 8.3-13.5 17-18.9 21-2.7 2-6.3 4-9.6 6.2.3-.4.6-.8.9-1.1 5.3-6.2 11.6-11.5 16.6-17.9 2.6-3.3 5.2-7.7 5.3-12.1-.7-.3-1.5-.6-2.2-.9.1.4.1.8.1 1.1-.1 2.1-.9 4.2-1.8 6-1.5 2.9-3.6 5.5-5.9 7.9-4.4 4.8-9.3 9.3-13.6 14.3-.2.2-.3.4-.5.6.4-3.2 2.1-6.6 3.7-9.2.8-.7 1.5-1.4 2.2-2.1 1.4-1.5 2.9-3.2 4.1-5.1 1.6-1.6 3.2-3.1 4.6-4.9 2.2-2.8 3.4-6.3 2.6-9.4h-.7c.9 3.5-1.5 7.2-4.6 10.7.8-2.2 1.1-4.5.3-6.7-.6-1.6-1.4-2.7-2.4-3.4-2 .5-3.8 1.3-5.5 2.3 1.6.4 3.1.8 4.7 1.3-1.1 3.9-3.6 6.8-7.1 9.1-.8.6-1.7 1.1-2.6 1.5-.7.2-1.3.5-2 .7-1 .5-1.8.6-2.5.2-.4 1.7-.7 3.4-.7 5.2v.5c.8.6 2.1.9 3.8.8.9 0 1.8-.3 2.7-.6-.8.6-1.5 1.1-2.4 1.6-1.1.7-2.4 1.5-3.8 1.8.1.6.3 1.1.4 1.6 2.1-.6 4.1-1.6 5.9-2.8-1.3 2.6-2.4 5.8-2.3 8.7-.2.2-.3.4-.5.6 1.1 1.5 2.3 2.8 3.7 4 4.9-1.8 10.2-2.1 15.3-3.6 2.6-.8 5-2 7.2-3.5-1.2 1-2.3 2.1-3.4 3.2-2.9 2.9-5.6 6-8.8 8.5.8.1 1.6.2 2.4.2l.2-.2c1.6.1 3.2 0 4.9-.3 5.3-1.6 9.6-4.4 12.5-8.2zm-33.8-13.3c-1.9.4-3.1-.5-3.5-2.8.6.1 1.3 0 2.1-.1 5.8-.8 12.9-6.7 13.7-12.9.1 0 .1 0 .2.1 1.4 1.9-.5 5.6-1.5 7.3-.5.9-1.1 1.8-1.7 2.6-1.4 1.6-3.1 3-5.1 4.2-1.2.9-2.5 1.7-4.2 1.6zm34.9-9.1c.1-.4.3-.7.4-1.1-.3-.5-.6-1-.9-1.4-1 2.5-2.3 5-2.4 7.6-.1 2.2 1.4 3.8 3.6 3.7.9 0 1.8-.3 2.5-.8 0-.5-.1-1-.1-1.4-.2.2-.4.3-.6.4-1.4 1.3-2.8.7-4-1.9.1-.9.3-1.7.6-2.5.2-.8.5-1.7.9-2.6z" fill="#6bd3dd" stroke-width="none" opacity="1"></path><path id="SvgjsPath9608" d="M139 63.7c3.7-2 7.5-3 10.8-5.7-3.3 2.4-7.5 3.7-10.9 5.6-.1 0 0 .1.1.1zm15.6-11.9c-1-1.3-3.6 1.8-4.1 2.2-2.1 1.8-4.1 3.6-6.6 5-1.7 1-3.4 1.9-4.6 3.5-.1.1.1.2.1.1 2.1-2.3 5.2-3.4 7.7-5.3 1-.8 1.9-1.6 2.8-2.4.5-.5 1-1 1.6-1.4.9-.6 3.3-2 2.2.1-.5 1-1.1 1.8-1.8 2.5 1.5-1.4 3.4-3.4 2.7-4.3zm-4.8 6.2c.7-.5 1.4-1.1 2.1-1.8-.9.8-1.6 1.5-1.9 1.7-.1 0-.1.1-.2.1zm-2.1-19.3c-1.1 1.8-2.6 3.5-4.1 5-2.1 2.1-4.3 4-6.6 5.9-3.5 2.9-7.1 5.7-10.3 9 .1.1.1.2.2.4 5.8-5.6 12.7-10.1 18.1-16.1 3.6-4 6.5-9.5 3-13.7h-.7c1.8 2.6 1.9 6.9.4 9.5zm13.9 24.1c-4 3.1-9 6.4-14.3 8.2.9-.1 1.7-.2 2.5-.3 4.5-1.9 8.7-4.8 12.1-7.4.1-.1.2-.1.3-.2.5-.6.9-1.2 1.3-1.8-.6.4-1.2.9-1.9 1.5zM154 34.9c-.1.7-.5 3-1.1 3.2-2.4.7-1-1.7-.8-2.4.6-2 .6-4.1-.4-5.8-.1 0-.2-.1-.3-.1.8 1.4 1 3 .7 4.7-.2 1-1.1 2.4-1 3.5.1.8.7 1.3 1.4.9 1.2-.6 1.8-3.5 1.9-4.6.2-1.2.1-2.3-.1-3.5-.1 0-.2-.1-.3-.1.2 1.3.2 2.7 0 4.2zm-26.3 4.6c1.3-.8 2.8-1.4 4.1-2 .5-.2 1-.5 1.5-.8.1-.1.2-.1.3-.2.1 0 .2-.1.2-.2.3-.2.6-.5.9-.7 1.7-1.4 3.1-3.3 3.8-5.2-.3.1-.5.2-.8.3-.1.2-.2.3-.2.5-.1.2-.2.5-.4.7.1-.2.1-.4.2-.6V31c-.3.1-.5.2-.8.4-.1.7-.3 1.3-.6 1.8-1.1 2.4-3.2 3.5-5.5 4.5-.2.1-.3.1-.5.2-.5.1-.9.2-1.4.3-.1.1-.1.2-.2.3h.6c-.3.1-.5.2-.8.4-.1 0-.2.3-.4.6zm8.3 4.1c1.5-1.9 3.3-5.4 4.2-8.9.8-1.7 1.6-3.5 2.2-5.4-.1 0-.3 0-.4.1-.4 1.2-.9 2.4-1.4 3.5.1-.5.1-1 .1-1.5.2-.4.3-.8.3-1.2v-.6c-.2 0-.4.1-.7.2v.2c-.1.6-.2 1.2-.6 1.9-.5 1-1.6 1.9-2.4 2.7-2.8 2.7-6.4 5.5-10.3 6-.1.2-.2.3-.2.5 2.5-.2 4.8-1.4 6.9-2.9 2.1-1.4 5.2-3.6 6.6-6.2 0 .5-.1 1.1-.2 1.6C139 36 137.8 38 137 39c-1.2 1.7-7.7 8.8-12.1 9.1v.5c4.4-.4 11-7.2 12.5-9.3.6-.8 1.4-2.1 2.2-3.6-.7 2.3-1.8 4.5-2.7 5.9-1.1 1.6-2.4 3.1-3.8 4.4-1.1 1-2.4 2-3.7 2.7-1.8 1.1-3.3 1.5-4.6 1.2v.5c4.4.4 8.7-3.7 11.2-6.8zm-4.4 8.4c3.8-4 9-7.1 12-11.8 2.1-3.2 3.1-7.3 1.1-10.9-.1-.1-.1-.2-.2-.2-.8 0-1.5.1-2.2.2l2.7 1.6c.1 1.1.3 2.1.4 3.2-.1 3-1.5 5-3.2 7.2-1.6 1.9-3.4 3.5-5.2 5-3.4 2.9-6.7 6-9.4 9.5-.4.6-.9 1.2-1.3 1.9.1.1.1.3.1.4 1.7-2.3 3.6-4.4 5.2-6.1zm30.8 3.8c-.2.3-.3.6-.5.9-3.2 2.1-6.6 3.9-9.2 6.7-2.5 2.7-4.7 5.3-7.2 7.4-.1.1-.2.1-.3.2h1.5l.3-.3c6.3-3.1 11.8-7.5 15.4-13.7 1.5-.9 2.8-1.8 4.1-2.9.1-.3.1-.6.1-.8-1.1 1.1-2.4 2-3.7 2.9.2-.4.5-.9.7-1.3 1.4-2.8 2.3-6.2 2.6-9.8-.1-.4-.2-.8-.3-1.3-.3 4.2-1.5 8.4-3.5 12zm-14.3 13.7c1.1-1.1 2.1-2.2 3.1-3.5 3-3.5 6.2-6.2 10.2-8.5-3.3 5.3-8 9.2-13.3 12zm-2.9-3.9c-2.6 1.4-5.4 2.6-8.3 3.4.6.3 1.2.5 1.8.7 2.3-.9 4.4-2 6.4-3.3 3.4-1.9 6.5-4.2 9.3-7.3 5.4-6.1 8.4-14 7.9-21.9-.2-.3-.4-.5-.6-.8.6 8.8-2.7 17.4-9.3 23.8-1 .9-2 1.8-3 2.5 2-2 3.8-4.4 5.2-7.1 1.4-2.6 2.4-5.2 3.1-7.8 1.5-4.7 1.8-9.6.8-14.5-.2-.2-.5-.4-.8-.6.4 1.4.6 2.8.7 4.3-.2-1.3-.5-2.5-.9-3.8V33v.2c-.1-.3-.2-.5-.3-.8-.2-.1-.3-.2-.5-.3.3.7.5 1.3.7 2-.2 2.3-1.2 4.7-2.6 7 .1-.4.3-.8.4-1.1.7-2.3 1-5.4.7-8.3l-.6-.3c.3 2.6 0 5.4-.6 7.7-.5 1.8-1.1 3.6-2 5.2-2.2 3-4.7 5.7-6.4 7-4.7 3.8-12.9 8.5-19.7 7.7.1.1.1.2.2.3 8.3 1.2 18.9-6.2 23.8-11.4-1.2 1.7-2.5 3.2-4 4.6-3.9 3.6-13 7.2-15.4 12.7.1.1.3.2.4.4 2.9-5.6 11.1-8.5 15.5-12.6 2.9-2.7 5.2-5.9 6.8-9.5 1.7-2.8 3.1-6.2 3.4-9.3.6 1.9 1 3.8 1 5.8 0 .5 0 1-.1 1.6 0 .4-.1.8-.1 1.2 0 .2 0 .3-.1.5-.1.5-.1 1-.2 1.4 0 .2-.1.4-.1.6-.1.5-.2.9-.3 1.4 0 .1-.1.2-.1.3-.7 2.4-1.7 4.7-3.1 6.9-2.6 4.2-6.2 7.7-10.3 10.3-2.2 1.4-5.4 3.3-8.5 4.1.3.2.6.3 1 .5 5.9-1.8 12.2-7.1 15.2-10.5.8-.9 1.5-1.9 2.2-2.8-.1.2-.2.3-.3.5-2 4.1-4.9 7.2-8.3 9.6z" fill="#ffffff" stroke-width="none" opacity="1"></path><path id="SvgjsPath9609" d="M57 137.1c6.6 3.6 13.7 6.1 21.1 7.3 6.2 1 14.8 2.1 19.7-2.9-.3-.4-.6-.7-.8-1.1-1.2-1.4-2.6-2.8-4-3.9-.2.1-.4.3-.6.4-2.2 1.3-5.9.8-8.2.5-5.1-.5-10.2-1.8-14.9-3.7-1.5-.6-3-1.3-4.5-2-3 1.1-5.9 2.7-8.5 4.8.1.3.4.5.7.6zm15.3 32.7c-7.6-1.2-15.3-3-22.1-6.7-1.8-1-3.5-2.1-5.1-3.2.1 6.7 2.4 13.4 7 18.8 8.3 9.7 21.5 12.7 32.8 8.4-3.1-.3-6.3-1-9.2-2-6.1-2.1-11.5-5.6-16.8-9.2 5 1.3 10.2 2 15.2 2.6 8 .9 16.3.7 23.9-1.3 2.5-3.4 4.3-7.2 5.2-11.2-.5 0-.9-.1-1.4-.1-8.8-.7-17.3-3.7-25.5-7-8.2-3.4-16.3-7.4-23.2-13.1-1-.8-2-1.7-3-2.6-1.4 2.1-2.5 4.3-3.3 6.6 5 4.4 11.2 7.7 16.3 10.3 8.9 4.5 18.6 8.3 28.5 10.4-6.5.7-13.1.2-19.3-.7z" fill="#003daa" stroke-width="none" opacity="1"></path><path id="SvgjsPath9610" d="M104.2 161.9c.4-3.9-.1-7.8-1.2-11.6-1.2-3.7-3.1-7.2-5.7-10.2s-5.7-5.5-9.2-7.2c-3.5-1.8-7.3-2.8-11.2-3.1-7.8-.6-15.8 2.1-21.6 7.2-2.9 2.6-5.3 5.7-7.1 9.1-1.7 3.5-2.8 7.2-3.1 11.1-.3 3.9.1 7.8 1.3 11.5s3 7.2 5.5 10.2 5.6 5.5 9.1 7.2c3.5 1.8 7.3 2.8 11.2 3 7.8.5 15.6-2.2 21.5-7.2 5.9-4.9 9.7-12.2 10.5-20zm-.7-.3c-6.8 1.4-14.5.7-20.9-.7-1.4-.3-2.8-.7-4.2-1 .9 0 1.8 0 2.8-.1 7.3-.5 15.9-2.5 21.2-7.9.9 3.1 1.3 6.4 1.1 9.7zm-1.3-10.6c-4.5.6-9.4-.4-13.4-1.3-5.7-1.4-11.1-3.7-16-6.8-4-2.6-7.7-5.8-10.8-9.4 1.2-.6 2.4-1 3.6-1.4.1 0 .2-.1.3-.1 4.6 2.6 10.9 3.3 15.6 3.8 2.9.3 6.3.5 9.6.2 2 1.4 3.8 3.1 5.4 4.9 2.6 2.9 4.5 6.3 5.7 10.1zm-25.4-20.3c4.7.4 9.2 1.9 13.2 4.4-1.8.2-3.6.2-5.1.2-3.9-.1-7.9-.7-11.7-1.6-1.3-.3-2.7-.7-4-1.1-.8-.3-1.6-.6-2.3-1 3.2-.8 6.6-1.2 9.9-.9zm-15.4 2.9c2.3 2.6 4.9 4.9 7.4 6.9 6.2 4.9 13.6 8.2 21.3 9.8 3.5.7 8.1 1.5 12.1 1v.1c-1.4 1.4-2.9 2.6-4.6 3.6-6.1 3.5-13.7 4.7-20.8 4.5-4.2-1.3-8.2-2.9-12-5.1-2.7-1.5-5.2-3.2-7.5-5.3-1.2-1.1-2.4-2.2-3.4-3.6-.5-.7-1.6-2.2-2.5-4 1.2-1.5 2.6-2.9 4.1-4.2 1.9-1.4 3.9-2.6 5.9-3.7zM51.2 142c1 1.9 2.3 3.6 3 4.5 5.3 6.3 13.2 10.3 21 12.9-.3 0-.6 0-.9-.1-9.2-.6-19.3-3.5-27.6-8.7 1-3 2.5-6 4.5-8.6zm-4.7 9.3c9.1 5.6 20.4 8.4 30.4 8.6 7.5 2.3 17.8 4 26.6 2.2-.3 3.7-1.2 7.3-2.9 10.7-.9 1.8-2 3.5-3.3 5.1-1.9.8-3.9 1.5-5.9 1.9-14.6 3.1-30.2-2.8-41.8-11.7-1.3-1-2.5-2.1-3.7-3.2-.5-2.6-.7-5.2-.5-7.8.1-1.8.5-3.8 1.1-5.8zm-.4 14.5c5.9 5.4 13.4 9.4 20.5 12 9.6 3.6 20.6 4.4 30.2.8-.7.8-1.3 1.5-2.1 2.2-3.3 1.8-6.9 3.1-10.7 4-3.9.4-7.9.3-11.8-.2-6.3-.8-13.9-3.2-20.5-7.1-2.7-3.4-4.6-7.4-5.6-11.7zM93.4 182c-.6.5-1.3 1-2 1.5-1.4.3-2.7.6-4.1.9 2.1-.6 4.1-1.4 6.1-2.4zm-41.1-3.8c6.5 3.9 13.9 6.4 21.5 7.2 2.2.2 4.4.3 6.6.2-4 .7-8 .9-11.8.8-2.2-.1-4.3-.3-6.4-.6-3.7-1.8-7-4.3-9.7-7.4 0-.1-.1-.1-.2-.2zm20 10.4c-2.9-.3-5.7-1-8.4-2.1 1.5.2 3.1.4 4.7.4 4.9.1 10.2-.3 15.4-1.6 2.1-.2 4.3-.6 6.4-1-2.1 1.3-4.3 2.4-6.7 3.1-3.8 1.1-7.6 1.5-11.4 1.2z" fill="#ffffff" stroke-width="none" opacity="1"></path><path id="SvgjsPath9611" d="m111.5 40.1-2.4-.2c-.1 0-.3 0-.4.2l-1.5 1.8c-.2.3-.7.2-.7-.2l-.5-2.3c0-.1-.1-.2-.2-.3l-2.2-.9c-.3-.1-.4-.6-.1-.7l2-1.2c.1-.1.2-.2.2-.3l.1-2.4c0-.3.4-.5.7-.3l1.8 1.5c.1.1.2.1.4.1l2.3-.6c.3-.1.6.2.5.6l-.9 2.2c-.1.1 0 .3 0 .4l1.3 2c.2.3 0 .7-.4.6zm42.6 118.5-2.4-.2c-.1 0-.3.1-.4.1l-1.5 1.9c-.2.3-.6.2-.7-.2l-.6-2.3c0-.1-.1-.2-.2-.3l-2.2-.9c-.3-.1-.4-.6-.1-.7l2-1.2c.1-.1.2-.2.2-.3l.1-2.4c0-.3.4-.5.7-.3l1.8 1.6c.1.1.2.1.4.1l2.3-.6c.3-.1.6.2.5.6l-.9 2.2c-.1.1 0 .3 0 .4l1.3 2c.3.2 0 .5-.3.5zM17.2 34.2l-2.4-.2c-.1 0-.3 0-.4.2L13 36c-.2.3-.6.2-.7-.2l-.6-2.3c0-.1-.1-.2-.2-.3l-2.2-.9c-.3-.1-.4-.6-.1-.7l2-1.2c.1-.1.2-.2.2-.3l.1-2.4c0-.3.4-.5.7-.3L14 29c.1.1.2.1.4.1l2.3-.6c.3-.1.6.2.5.6l-.9 2.2v.4l1.3 2c.2.2-.1.5-.4.5zm81.6 75.5-2.4-.2c-.1 0-.3.1-.4.2l-1.5 1.8c-.2.3-.7.2-.7-.2l-.6-2.3c0-.1-.1-.2-.2-.3l-2.2-.9c-.3-.1-.4-.6-.1-.7l2-1.2c.1-.1.2-.2.2-.3l.1-2.4c0-.3.4-.5.7-.3l1.8 1.6c.1.1.2.1.4.1l2.3-.6c.3-.1.6.2.5.6l-.9 2.2c-.1.1 0 .3 0 .4l1.3 2c.2.1 0 .5-.3.5zm-43.3 20.9-2.4-.2c-.1 0-.3.1-.4.1l-1.5 1.9c-.2.3-.7.2-.7-.2l-.5-2.3c0-.1-.1-.2-.2-.3l-2.2-.9c-.3-.1-.4-.6-.1-.7l2-1.2c.1-.1.2-.2.2-.3l.1-2.4c0-.3.4-.5.7-.3l1.8 1.6c.1.1.2.1.4.1l2.3-.6c.3-.1.6.2.5.6l-.9 2.2v.4l1.3 2c.1.1-.1.5-.4.5zM172.7 112l-1.5-.1c-.1 0-.2 0-.2.1l-1 1.2c-.1.2-.4.1-.5-.1l-.4-1.5c0-.1-.1-.2-.2-.2l-1.4-.6c-.2-.1-.2-.4 0-.5l1.3-.8c.1-.1.1-.1.1-.2l.1-1.5c0-.2.3-.3.4-.2l1.1 1c.1.1.2.1.2.1l1.5-.4c.2-.1.4.2.3.4l-.6 1.4v.2l.8 1.3c.4.2.2.5 0 .4zm20.7 76-1.5-.1c-.1 0-.2 0-.2.1l-1 1.2c-.1.2-.4.1-.5-.1l-.4-1.5c0-.1-.1-.1-.2-.2l-1.4-.6c-.2-.1-.2-.4 0-.5l1.3-.8c.1-.1.1-.1.1-.2l.1-1.5c0-.2.3-.3.4-.2l1.1 1c.1.1.2.1.2.1l1.5-.4c.2-.1.4.1.3.4l-.6 1.4v.2l.8 1.3c.3.2.2.4 0 .4zM78.6 96.5l-1.6-.1c-.1 0-.2 0-.2.1l-1 1.2c-.1.2-.4.1-.5-.1l-.3-1.5c0-.1-.1-.2-.2-.2l-1.4-.6c-.2-.1-.2-.4 0-.5l1.3-.8c.1-.1.1-.1.1-.2l.1-1.5c0-.2.3-.3.4-.2l1.2 1c.1.1.2.1.2.1l1.5-.4c.2-.1.4.2.3.4l-.5 1.4v.2l.8 1.3c.1.1 0 .4-.2.4zm47.6 61.6-1.5-.1c-.1 0-.2 0-.2.1l-1 1.2c-.1.2-.4.1-.5-.1l-.3-1.5c0-.1-.1-.1-.2-.2l-1.4-.6c-.2-.1-.2-.4 0-.5l1.3-.8c.1-.1.1-.1.1-.2l.1-1.5c0-.2.3-.3.4-.2l1.2 1c.1.1.2.1.2.1l1.5-.4c.2-.1.4.1.3.4l-.6 1.4v.2l.8 1.3c.1.2 0 .5-.2.4zm54.9-74.2-1.2-.9c-.1-.1-.2-.1-.2 0l-1.4.5c-.2.1-.4-.1-.3-.3l.4-1.4v-.2l-.9-1.2c-.1-.2 0-.4.2-.4h1.5c.1 0 .2 0 .2-.1l.8-1.3c.1-.2.4-.2.5.1l.5 1.4c0 .1.1.2.2.2l1.5.4c.2.1.3.3.1.5l-1.2.9c-.1.1-.1.1-.1.2l.1 1.5c-.2.1-.5.3-.7.1zM19.7 20.1l-1.2-.9c-.1 0-.2-.1-.2 0l-1.4.5c-.2.1-.4-.1-.3-.3l.5-1.5v-.2L16 16.5c-.1-.2 0-.4.2-.4h1.5c.1 0 .2 0 .2-.1l.8-1.3c.1-.2.4-.1.5.1l.5 1.4c0 .1.1.1.2.2l1.5.4c.2.1.3.3.1.5l-1.2.9c-.1 0-.1.1-.1.2l.1 1.5c-.1.2-.4.3-.6.2zm-4.6 160.4-1.2-.9c-.1-.1-.2-.1-.2 0l-1.4.5c-.2.1-.4-.1-.3-.3l.4-1.4v-.2l-.9-1.2c-.1-.2 0-.4.2-.4h1.5c.1 0 .2 0 .2-.1l.8-1.3c.1-.2.4-.1.5.1l.5 1.4c0 .1.1.1.2.2l1.5.4c.2.1.3.3.1.5l-1.2.9c-.1.1-.1.1-.1.2l.1 1.5c-.2 0-.5.2-.7.1zm9.2-23.9-1.2-.9c-.1-.1-.2-.1-.2 0l-1.4.5c-.2.1-.4-.1-.3-.3l.5-1.4v-.2l-.9-1.2c-.1-.2 0-.4.2-.4h1.5c.1 0 .2 0 .2-.1l.8-1.3c.1-.2.4-.1.5.1l.5 1.4c0 .1.1.1.2.2l1.5.4c.2.1.3.3.1.5l-1.2.9c-.1.1-.1.1-.1.2l.1 1.5c-.4.1-.6.2-.8.1zM126.9 91l-2.5-2.6c-.1-.2-.3-.2-.6-.2l-3.5.6c-.5.1-.9-.4-.7-.9l1.7-3.2c.1-.2.1-.4 0-.6l-1.7-3.2c-.2-.5.1-1 .7-.9l3.5.6c.2 0 .4 0 .6-.2l2.5-2.6c.4-.4 1-.2 1.1.3l.5 3.6c0 .2.2.4.3.5l3.2 1.6c.5.2.5.9 0 1.1l-3.2 1.6c-.2.1-.3.3-.3.5l-.5 3.6c-.1.6-.8.8-1.1.4zm7.1 92.6-2.5-2.6c-.1-.1-.4-.2-.6-.2l-3.5.6c-.5.1-.9-.4-.7-.9l1.7-3.2c.1-.2.1-.4 0-.6l-1.7-3.2c-.2-.5.1-1 .7-.9l3.5.6c.2 0 .4 0 .6-.2l2.5-2.6c.4-.4 1-.2 1.1.3l.5 3.6c0 .2.2.4.3.5l3.2 1.6c.5.2.5.9 0 1.1l-3.2 1.6c-.2.1-.3.3-.3.5l-.5 3.6c-.2.6-.8.8-1.1.4zm51.8-150.1-3.4-1.2c-.2-.1-.4 0-.6.1l-2.9 2.1c-.4.3-1 0-1-.5l.1-3.6c0-.2-.1-.4-.3-.5l-2.9-2.1c-.4-.3-.3-1 .2-1.1l3.4-1c.2-.1.4-.2.4-.4l1.1-3.4c.2-.5.8-.6 1.1-.2l2 3c.1.2.3.3.5.3h3.6c.5 0 .8.6.5 1l-2.2 2.8c-.1.2-.2.4-.1.6l1.1 3.4c.3.4-.2.9-.6.7zM32.1 142.8l-3.4-1.2c-.2-.1-.4 0-.6.1l-2.9 2.1c-.4.3-1 0-1-.5l.1-3.6c0-.2-.1-.4-.3-.5l-2.9-2.1c-.4-.3-.3-1 .2-1.1l3.4-1c.2-.1.4-.2.4-.4l1.1-3.4c.2-.5.8-.6 1.1-.2l2 3c.1.2.3.3.5.3h3.6c.5 0 .8.6.5 1l-2.2 2.8c-.1.2-.2.4-.1.6l1.1 3.4c.4.4-.1.8-.6.7z" fill="#ffd86c" stroke-width="none" opacity="1"></path><path id="SvgjsPath9612" d="M107 42.6h-.2c-.3-.1-.6-.3-.7-.7l-.6-2.3-2.2-.8c-.3-.1-.6-.4-.6-.8s.1-.7.4-.9l2-1.2.1-2.3c0-.3.2-.7.6-.8s.7-.1 1 .2l1.8 1.5 2.2-.6c.3-.1.7 0 .9.3.2.3.3.6.2 1l-.9 2.2 1.3 1.9c.2.3.2.7 0 1s-.5.5-.9.4l-2.4-.2-1.4 1.8c-.1.2-.4.3-.6.3zm-3.1-4.7 2.1.8c.3.1.5.3.6.6l.5 2.2 1.4-1.7c.2-.2.5-.4.8-.3l2.3.2-1.3-1.9c-.2-.2-.2-.6-.1-.8l.8-2-2.1.6c-.3.1-.6 0-.8-.2l-1.7-1.4-.1 2.2c0 .3-.2.6-.4.7l-2 1zm7.7 1.7zm37.9 121.5h-.2c-.3-.1-.6-.3-.7-.7l-.6-2.3-2.2-.8c-.3-.1-.6-.4-.6-.8s.1-.7.4-.9l2-1.2.1-2.3c0-.4.2-.6.6-.8s.7-.1 1 .1l1.8 1.6 2.2-.6c.3-.1.7 0 .9.3s.3.6.2.9l-.9 2.2 1.3 1.9c.2.3.2.7 0 1s-.5.5-.9.4l-2.4-.2-1.4 1.8c0 .3-.3.4-.6.4zm-3.1-4.7 2.1.8c.3.1.5.4.6.6l.5 2.2 1.4-1.7c.2-.2.5-.4.8-.3l2.3.2-1.3-1.9c-.2-.2-.2-.6-.1-.9l.9-2.1-2.1.6c-.3.1-.6 0-.8-.2l-1.7-1.4-.1 2.2c0 .3-.2.6-.4.7l-2.1 1.2zm7.7 1.7zM12.6 36.7h-.2c-.3-.1-.6-.3-.7-.7l-.6-2.3-2.1-.8c-.3-.1-.6-.4-.6-.8s.1-.7.4-.9l2-1.2.1-2.3c0-.4.2-.6.6-.8.3-.1.7-.1 1 .1l1.8 1.5 2.2-.6c.3-.1.7 0 .9.3s.3.6.2 1l-.9 2.2 1.3 1.9c.2.3.2.7 0 1s-.5.5-.9.4l-2.4-.2-1.4 1.8c-.1.3-.4.4-.7.4zM9.5 32l2.1.8c.3.1.5.3.6.6l.5 2.2 1.4-1.7c.2-.2.5-.4.8-.3l2.3.2-1.3-1.9c-.2-.2-.2-.6-.1-.9l.9-2-2.1.6c-.3.1-.6 0-.8-.2L12 27.9l-.1 2.2c0 .3-.2.6-.4.7l-2 1.2zm7.7 1.7zm77 78.4H94c-.3-.1-.6-.3-.7-.7l-.6-2.3-2.2-.8c-.3-.1-.6-.4-.6-.8s.1-.7.4-.9l2-1.2.1-2.3c0-.3.2-.7.6-.8s.7-.1 1 .2l1.8 1.6 2.2-.6c.3-.1.7 0 .9.3.2.3.3.6.2.9l-.9 2.2 1.3 1.9c.2.3.2.7 0 1s-.5.5-.9.4l-2.4-.2-1.4 1.8c-.1.2-.3.3-.6.3zm-3.1-4.7 2.1.8c.3.1.5.3.6.6l.5 2.2 1.4-1.7c.2-.2.5-.4.8-.3l2.3.2-1.3-1.9c-.2-.2-.2-.6-.1-.8l.8-2.1-2.2.6c-.3.1-.6 0-.8-.2l-1.7-1.4-.1 2.2c0 .3-.2.6-.4.7l-1.9 1.1zm7.7 1.8zm-47.9 23.9h-.2c-.3-.1-.6-.3-.7-.7l-.5-2.3-2.2-.8c-.3-.1-.5-.4-.6-.8s.1-.7.4-.9l2-1.2.1-2.3c0-.3.2-.7.5-.8s.7-.1 1 .2l1.8 1.6 2.2-.6c.3-.1.7 0 .9.3s.3.6.2.9l-.9 2.2 1.3 1.9c.2.3.2.7 0 1s-.5.5-.9.4l-2.4-.2-1.4 1.8c-.1.1-.3.3-.6.3zm-3.1-4.7 2.1.8c.3.1.5.4.6.6l.5 2.2 1.4-1.7c.2-.2.5-.4.8-.3l2.3.2-1.3-1.9c-.2-.2-.2-.6-.1-.8l.8-2.1-2.1.6c-.3.1-.6 0-.8-.2l-1.7-1.4-.1 2.2c0 .3-.2.6-.4.7l-2 1.1zm7.7 1.7zm114.3-16.5h-.1c-.2-.1-.4-.2-.4-.4l-.4-1.5-1.4-.5c-.2-.1-.4-.3-.4-.5s.1-.4.3-.6l1.3-.8.1-1.5c0-.2.1-.4.4-.5.2-.1.4-.1.6.1l1.1 1 1.4-.4c.2-.1.4 0 .6.2s.2.4.1.6l-.6 1.4.8 1.2c.1.2.1.4 0 .6s-.3.3-.6.3l-1.5-.1-.9 1.2c0 .1-.2.2-.4.2zm-1.9-3 1.3.5c.2.1.3.2.4.4l.3 1.4.9-1.1c.1-.2.3-.2.5-.2l1.4.1-.8-1.2c-.1-.2-.1-.4-.1-.5l.5-1.3-1.4.4c-.2.1-.4 0-.5-.1l-1.1-.9-.1 1.4c0 .2-.1.4-.3.5l-1 .6zm4.9 1.1zm17.7 77.9h-.1c-.2-.1-.4-.2-.4-.4l-.4-1.5-1.4-.5c-.2-.1-.4-.3-.4-.5s.1-.4.3-.6l1.3-.8.1-1.5c0-.2.1-.4.4-.5.2-.1.4-.1.6.1l1.1 1 1.4-.4c.2-.1.4 0 .6.2s.2.4.1.6l-.6 1.4.8 1.2c.1.2.1.4 0 .6s-.3.3-.6.3l-1.5-.1-.9 1.2c-.1.1-.3.2-.4.2zm-2-3 1.3.5c.2.1.3.2.4.4l.3 1.4.9-1.1c.1-.1.3-.2.5-.2l1.4.1-.8-1.2c-.1-.2-.1-.4-.1-.5l.5-1.3-1.4.4c-.2.1-.4 0-.5-.1l-1-1-.1 1.4c0 .2-.1.4-.3.5l-1.1.7zm4.9 1.1zM75.7 98c-.3-.1-.5-.2-.5-.4l-.3-1.5-1.4-.5c-.2-.1-.3-.3-.4-.5s.1-.4.3-.6l1.3-.8.1-1.5c0-.2.2-.4.3-.5.2-.1.4-.1.6.1l1.2 1 1.4-.4c.2-.1.4 0 .6.2s.2.4.1.6l-.6 1.4.8 1.2c.1.2.1.4 0 .6s-.3.3-.6.3H77l-.9 1.2c-.1.1-.3.1-.4.1zm-2-2.9 1.3.5c.2.1.3.2.4.4l.3 1.4.9-1.1c.1-.2.3-.2.5-.2l1.4.1-.8-1.2c-.1-.2-.1-.4-.1-.5l.5-1.3-1.4.4c-.2.1-.4 0-.5-.1l-1.1-.9L75 94c0 .2-.1.4-.3.5l-1 .6zm4.9 1.1zm44.7 63.5c-.3-.1-.5-.2-.5-.4l-.3-1.5-1.4-.5c-.2-.1-.3-.3-.4-.5 0-.2.1-.4.3-.6l1.3-.8.1-1.5c0-.2.2-.4.3-.5.2-.1.4-.1.6.1l1.2 1 1.4-.4c.2-.1.4 0 .6.2s.2.4.1.6l-.6 1.4.8 1.2c.1.2.1.4 0 .6s-.3.3-.6.3l-1.5-.1-.9 1.2c-.2.1-.4.2-.5.2zm-2-3 1.3.5c.2.1.3.2.4.4l.3 1.4.9-1.1c.1-.1.3-.2.5-.2l1.4.1-.8-1.2c-.1-.2-.1-.4-.1-.5l.5-1.3-1.4.4c-.2.1-.4 0-.5-.1l-1.1-.9-.1 1.4c0 .2-.1.4-.3.5l-1 .6zm4.9 1.1zm51.7-74-.1-.1c-.2-.2-.2-.4-.2-.6l.4-1.4-.9-1.1c-.1-.2-.2-.4-.1-.6.1-.2.3-.3.5-.3h1.5l.8-1.2c.1-.2.3-.3.6-.2s.4.2.5.4l.5 1.4 1.4.4c.2.1.4.2.4.4s0 .4-.2.6l-1.2.9.1 1.5c0 .2-.1.4-.3.5s-.4.1-.6 0l-1.2-.9-1.4.5c-.2-.1-.4-.1-.5-.2zm-.2-3.6.9 1.1c.1.2.2.3.1.5l-.4 1.3 1.3-.5c.2-.1.4 0 .5.1l1.2.8-.1-1.4c0-.2.1-.4.2-.5l1.1-.8-1.4-.4c-.2-.1-.3-.2-.4-.4l-.4-1.3-.8 1.2c-.1.2-.3.3-.5.3h-1.3zm3.6 3.5zM16.5 20s-.1 0-.1-.1c-.2-.1-.2-.4-.2-.6l.5-1.5-.9-1.1c-.1-.2-.2-.4-.1-.6.1-.2.3-.3.5-.3h1.5l.8-1.2c.1-.2.3-.3.6-.2s.4.2.5.4l.5 1.4 1.4.4c.2.1.4.2.4.5 0 .2 0 .4-.2.6l-1.2.9.1 1.5c0 .2-.1.4-.3.5-.2.1-.4.1-.6 0l-1.2-.9-1.5.3c-.2.1-.4 0-.5 0zm-.2-3.6.9 1.1c.1.1.2.4.1.5l-.4 1.3 1.3-.5c.2-.1.4 0 .5.1l1.2.8-.1-1.4c0-.2.1-.4.2-.5l1.1-.8-1.4-.4c-.2 0-.3-.2-.4-.4l-.3-1.3-.8 1.2c-.1.2-.3.3-.5.3h-1.4zm3.6 3.4zm-8.1 160.5-.1-.1c-.2-.1-.2-.4-.2-.6l.4-1.4-.9-1.1c-.1-.2-.2-.4-.1-.6.1-.2.3-.3.5-.3h1.5l.8-1.2c.1-.2.3-.3.6-.2s.4.2.5.4l.5 1.4 1.4.4c.2.1.4.2.4.4s0 .4-.2.6l-1.2.9.1 1.5c0 .2-.1.4-.3.5s-.4.1-.6 0l-1.2-.9-1.4.5c-.1-.1-.3-.1-.5-.2zm-.1-3.5.9 1.1c.1.1.2.4.1.5l-.4 1.3 1.3-.5c.2-.1.4 0 .5.1l1.2.8-.1-1.4c0-.2.1-.4.2-.5l1.1-.8-1.4-.4c-.2-.1-.3-.2-.4-.4l-.4-1.3-.8 1.2c-.1.2-.3.3-.5.3h-1.3zm3.6 3.4zm5.7-23.8-.1-.1c-.2-.1-.2-.4-.2-.6l.5-1.4-.9-1.1c-.1-.2-.2-.4-.1-.6.1-.2.3-.3.5-.3h1.5l.8-1.3c.1-.2.3-.3.6-.2s.4.2.5.4l.5 1.4 1.4.4c.2.1.4.2.4.4s0 .4-.2.6l-1.2.9.1 1.5c0 .2-.1.4-.3.5-.2.1-.4.1-.6 0L23 156l-1.4.5c-.3 0-.5 0-.6-.1zm-.2-3.5.9 1.1c.1.1.2.4.1.5l-.4 1.3 1.3-.5c.2-.1.4 0 .5.1l1.2.8-.1-1.4c0-.2.1-.4.2-.5l1.1-.8-1.4-.4c-.2-.1-.3-.2-.4-.4l-.5-1.3-.8 1.2c-.1.2-.3.3-.5.3h-1.2zm3.7 3.4zm94.7-67c-.1-.1-.2-.1-.2-.2-.3-.4-.4-1-.1-1.4l1.7-3.2-1.7-3.1c-.2-.5-.2-1 .1-1.4s.8-.6 1.3-.6l3.5.6 2.4-2.5c.4-.4.9-.5 1.4-.3s.9.6.9 1.1l.5 3.6 3.2 1.5c.5.2.8.7.8 1.2s-.3 1-.8 1.2l-3.2 1.6-.4 3.5c-.1.5-.4.9-.9 1.1-.5.2-1.1 0-1.4-.3l-2.5-2.6-3.4.7c-.4-.1-.8-.2-1.2-.5zm1.2-8.4 1.6 2.9c.2.4.2.9 0 1.3l-1.5 3 3.3-.6c.4-.1.9.1 1.2.4l2.4 2.4.4-3.4c.1-.4.3-.8.8-1l3-1.5-3-1.5c-.4-.2-.7-.6-.8-1l-.5-3.3L125 81c-.3.3-.8.5-1.2.4l-3.4-.5zm7 9.6zm-1.1 91.4c-.1-.1-.2-.1-.2-.2-.3-.4-.4-1-.1-1.4l1.7-3.2-1.7-3.1c-.2-.5-.2-1 .1-1.4s.8-.6 1.3-.6l3.5.6 2.4-2.5c.4-.4.9-.5 1.4-.4.5.2.9.6.9 1.1l.5 3.6 3.2 1.5c.5.2.8.7.8 1.2s-.3 1-.8 1.2l-3.2 1.6-.4 3.5c-.1.5-.4.9-.9 1.1-.5.2-1.1 0-1.4-.3l-2.5-2.6-3.4.7c-.4 0-.8-.1-1.2-.4zm1.2-8.4 1.6 2.9c.2.4.2.9 0 1.3l-1.5 3 3.3-.6c.4-.1.9.1 1.2.4l2.4 2.4.4-3.4c.1-.4.3-.8.8-1l3-1.5-3-1.5c-.4-.2-.7-.6-.8-1l-.5-3.3-2.3 2.4c-.3.3-.8.5-1.2.4l-3.4-.5zm7 9.6zm43.7-147.8c-.1 0-.2-.1-.3-.1-.5-.2-.8-.7-.7-1.3l.1-3.6-2.9-2c-.4-.3-.6-.8-.5-1.4.1-.5.5-.9 1-1.1l3.4-1 1-3.3c.2-.5.6-.9 1.1-.9.5-.1 1 .1 1.3.6l2 3h3.5c.5 0 1 .3 1.2.8s.2 1-.1 1.5l-2.2 2.8 1.1 3.3c.2.5 0 1-.4 1.4s-.9.5-1.4.3l-3.4-1.2-2.8 2.1c-.2.1-.6.2-1 .1zm-2.7-8 2.7 2c.4.3.6.7.6 1.1l-.1 3.3 2.7-2c.4-.3.8-.3 1.3-.2l3.2 1.2-1.1-3.2c-.1-.4-.1-.9.2-1.3l2-2.6h-3.3c-.4 0-.9-.2-1.1-.6l-1.9-2.8-1 3.2c-.1.4-.5.8-.9.9l-3.3 1zm10.5 5.5zM24.5 144.6c-.1 0-.2-.1-.3-.1-.5-.2-.8-.7-.7-1.3l.1-3.6-2.9-2c-.4-.3-.6-.8-.5-1.4.1-.5.5-.9 1-1.1l3.4-1 1-3.3c.2-.5.6-.9 1.1-.9.5-.1 1 .1 1.3.6l2 3h3.5c.5 0 1 .3 1.2.8s.2 1-.1 1.4l-2.2 2.8 1.1 3.3c.2.5 0 1-.3 1.4-.4.4-.9.5-1.4.3l-3.4-1.2-2.8 2.1c-.2.2-.7.3-1.1.2zm-2.6-8.1 2.7 2c.4.3.6.7.6 1.1L25 143l2.7-1.9c.4-.3.8-.3 1.3-.2l3.2 1.1-1.1-3.2c-.1-.4-.1-.9.2-1.3l2-2.6H30c-.5 0-.9-.2-1.1-.6l-1.9-2.8-1.1 3.2c-.1.4-.5.8-.9.9l-3.1.9zm10.5 5.6z" fill="#ffe1a6" stroke-width="none" opacity="0.73"></path><path id="SvgjsPath9613" d="M157.3 17.6h.1c.7-.1.7-1 0-1h-.1c-.7-.1-.7 1 0 1zm10.8-5.1c.3 0 .3-.5 0-.5-.4 0-.4.5 0 .5zm1.6 6.2c.2 0 .2-.3 0-.3-.2-.1-.2.3 0 .3zm12.9-7.4c0-.1 0-.1-.1-.2-.1-.2-.3-.2-.3 0 0 .1-.1.1-.1.2 0 .3.6.3.5 0zm.3-8c.2 0 .3 0 .4-.1.2-.1.2-.4 0-.6-.1-.1-.2-.1-.4-.1-.5.1-.5.8 0 .8zM191 17c0-.1 0-.1-.1-.2-.1-.2-.3-.2-.4 0 0 .1-.1.1-.1.2.1.4.7.4.6 0zm3.8-3.1c.3 0 .3-.4 0-.4-.2 0-.2.4 0 .4zm-80.5.7c.5 0 .5-.7 0-.7s-.5.7 0 .7zm-5.5 7.2c.3 0 .3-.5 0-.5-.3.1-.3.5 0 .5zm1.9-10.5c.3 0 .3-.5 0-.5s-.3.5 0 .5zm9.6 6.3c.1 0 .1-.1 0-.1s-.1.1 0 .1zm5.5-6.5c.3 0 .3-.4 0-.4s-.3.4 0 .4zm-.3-7.2c.3 0 .3-.4 0-.4s-.2.4 0 .4zm11.3 3.3c.3 0 .3-.4 0-.4s-.3.4 0 .4zM94.2 35.3c-.2 0-.3 0-.5.2-.1.1-.1.3 0 .4.1.2.3.2.5.2.5-.1.5-.7 0-.8zm2.9 14.4c.2 0 .2-.3 0-.3s-.2.3 0 .3zm5.5-1.8c.3 0 .3-.4 0-.4-.3-.1-.3.4 0 .4zM12.5 56c-.2 0-.2 0-.4.1s-.2.4 0 .5c.2 0 .2.1.4.1.3-.2.3-.8 0-.7zm-4-5.6c.3 0 .3-.5 0-.5s-.3.5 0 .5zm2.5-7c.1 0 .1-.1 0 0 0-.1 0 0 0 0zm22.5-25.7c0-.2 0-.2-.1-.4-.1-.3-.4-.3-.4-.1s-.1.2-.1.4c0 .4.6.4.6.1zm-2.1-7.1c.1 0 .1-.2 0-.2s-.1.2 0 .2zm-2.5.1c.2 0 .2-.4 0-.4s-.2.4 0 .4zm.7-5.7c.3 0 .3-.4 0-.4s-.3.4 0 .4zm5.7 5.4c.3 0 .3-.4 0-.4-.3-.1-.3.4 0 .4zm17.9-5.7c.3 0 .3-.5 0-.5s-.3.5 0 .5zM4.6 15.1c.3 0 .3-.5 0-.5s-.4.5 0 .5zm56.1 88.7c.3 0 .4 0 .6-.2v-.2c-.2-.2-.3-.3-.6-.2-.5-.2-.5.6 0 .6zm-38.9 18.1c.4 0 .4-.6 0-.6s-.4.6 0 .6zm3.9-6.6c.2 0 .2-.3 0-.3s-.2.3 0 .3zm-15.1-12.7c0-.2 0-.2-.1-.4-.1-.1-.3-.1-.4 0-.1.2-.1.2-.1.4-.1.6.7.6.6 0zm7.9-16.4c0-.2 0-.3-.1-.4-.1-.3-.4-.3-.5 0-.1.2-.1.2-.1.4 0 .5.8.5.7 0zm-1.6-10.5c-.1-.1-.3-.2-.4-.3-.1-.1-.3.1-.2.2.1.1.2.3.3.4.2.3.5-.1.3-.3zm-4.1 6.4c.2 0 .2-.4 0-.4s-.2.4 0 .4zm3.6-8.6c.2 0 .2-.3 0-.3s-.2.3 0 .3zm-4.6-2.1c.1 0 .1-.2 0-.2-.2-.1-.2.2 0 .2zm3.2-6.8c.1 0 .1-.2 0-.2-.2-.1-.2.2 0 .2zm164.5 35.6c.1-.1.2-.1.3-.2.2-.1.3-.3.2-.5v-.1c0-.1-.1-.2-.2-.2h-.1c-.2 0-.4 0-.5.2-.1.1-.1.2-.2.3-.3.2.2.7.5.5zm3-5c.4 0 .4-.7 0-.7s-.4.7 0 .7zm2.2 3c.2 0 .2-.3 0-.3s-.2.3 0 .3zm3.9-5.8c.1 0 .1-.2 0-.2s-.2.2 0 .2zm6.1-8.1c.1 0 .2-.1.3-.1s.1-.2 0-.2-.2-.1-.3-.1c-.3-.2-.3.6 0 .4zm-51.5-4.4c.5 0 .5-.8 0-.8s-.5.8 0 .8zm-4 7.5c.1-.1.2-.3.3-.4s-.1-.3-.2-.2c-.1.1-.3.2-.4.3-.5.2 0 .7.3.3zm4.7-3.5c.2 0 .2-.3 0-.3s-.1.3 0 .3zm4-4.3c.2 0 .2-.3 0-.3-.3 0-.3.3 0 .3zm-39.7 6.7c.2 0 .3 0 .5-.1s.2-.4 0-.5-.3-.1-.5-.1c-.5-.1-.5.6 0 .7zm-6.4 8.1c.4 0 .4-.7 0-.7s-.5.7 0 .7zm-5-3.6c.3 0 .3-.5 0-.5s-.3.5 0 .5zm6.8-6.6c.2 0 .2-.3 0-.3-.2.1-.2.3 0 .3zm-1.8 5.4c.2 0 .2-.2 0-.2s-.2.2 0 .2zm-11.1 10c.2 0 .2-.3 0-.3s-.2.3 0 .3zm17.5-1c.3 0 .3-.4 0-.4s-.3.4 0 .4zM31.9 193c.1 0 .2-.1.3-.1.1-.1.1-.3 0-.4-.1 0-.2-.1-.3-.1-.6-.3-.6.9 0 .6zm1.3-8.8c.2 0 .3 0 .5-.1s.2-.5 0-.6-.3-.1-.5-.1c-.5 0-.5.7 0 .8zm1.1 4.8c.2 0 .2 0 .4-.1s.2-.3 0-.3-.2-.1-.4-.1c-.4 0-.4.6 0 .5zm3.7-4.5c0-.1 0-.3-.1-.4 0-.1-.3-.1-.3 0s0 .2-.1.4c.1.3.6.3.5 0zm.2-5.5c.2 0 .2-.4 0-.4-.3 0-.3.4 0 .4zm3.9 6.1c.3 0 .3-.5 0-.5s-.3.5 0 .5zm-9.3-20.4c.3 0 .3-.4 0-.4-.2 0-.2.4 0 .4zm-21.1 22c-.2-.2-.3-.4-.6-.4-.1 0-.3.1-.3.3 0 .3.1.4.4.6.3.4.8-.1.5-.5zM25 165.8c.3 0 .3-.5 0-.5s-.4.5 0 .5zm107.5-37.9c-.1-.1-.1-.2-.2-.4s-.3-.2-.4 0c-.1.1-.1.2-.2.4-.1.7 1 .7.8 0zm-14.7 20.8c.3 0 .3-.5 0-.5s-.3.5 0 .5zm11.8 5.5c.6 0 .6-.9 0-.9s-.5.9 0 .9zm0 8.4c.4 0 .4-.6 0-.6-.3.1-.3.6 0 .6zm-5 6c.2 0 .2-.3 0-.3s-.2.3 0 .3zm-6.8 1.8c.3 0 .3-.4 0-.4s-.2.4 0 .4zm24.3 13.4c.2 0 .3 0 .4-.1.3-.1.3-.5 0-.6-.2-.1-.2-.1-.4-.1-.5 0-.5.8 0 .8zm7.9 10.3c.4 0 .4-.7 0-.7s-.4.7 0 .7zm7.9-8.2c.4 0 .4-.6 0-.6s-.4.6 0 .6zm4.2 7c.3 0 .3-.4 0-.4-.2 0-.2.4 0 .4zm10.1-2.3s0-.1 0 0c-.1-.1-.1 0 0 0zm-16.8-3.1c.2 0 .2-.3 0-.3s-.2.3 0 .3zm3.2-4.3c.2 0 .2-.3 0-.3s-.2.3 0 .3zm-47.6 3.6.3-.9c.1-.3-.3-.5-.5-.3s-.4.4-.5.7c-.2.6.5 1 .7.5zm62.1-57.4c.1-.2.2-.3.3-.5s-.1-.5-.4-.4c-.2.1-.3.2-.5.3-.3.4.3 1 .6.6zm-4.9 12.1c0-.2-.1-.2-.1-.4-.1-.1-.3-.1-.4 0-.1.2-.1.2-.1.4-.2.6.7.6.6 0zm4.3-6.8c.3 0 .3-.4 0-.4-.3-.1-.3.4 0 .4zm5-3.3c.2 0 .2-.3 0-.3s-.2.3 0 .3zm2.2-4.5c.4 0 .4-.6 0-.6s-.4.6 0 .6z" fill="#ffd86c" stroke-width="none" opacity="1"></path></g><g id="svga-group-humanwrap-move" transform="matrix(1,0,0,1,0,0)"><g id="svga-group-humanwrap"><g id="svga-group-hair-back-move" transform="matrix(1,0,0,1,0,0)"><g id="svga-group-hair-back"><path id="SvgjsPath9730" d="M161 137.8c-.7-.5-1.4-1.1-2-1.6-2.1-4.4-4.2-8.8-6.1-13.2-1.7-5.2-2.4-10.4-2.7-15.6.2-2.2.3-4.3.5-6.5v.2c-.2 11.1 2.8 22 9.3 31.1.2.3.7 0 .5-.3-6.9-11.5-9.4-23.3-8.5-36.6.3-4.3.4-8.6.3-12.8.3-4 .2-8-1-11.6-.4-2.5-.9-5-1.6-7.6V63c-.7-4.5-1.4-8.8-5-11.9-.2-.2-.5.1-.3.3 4.1 3.9 4.4 10.2 5.1 15.5v.2c-.1.1-.1.1-.1.2l.3 3.3c-.1-.3-.6-.1-.5.2.1.3.2.6.3.8.1 1.4.1 2.9 0 4.3-.3 0-.5-.1-.8-.1.1-2.4.1-4.8.1-7.1 0-.6-.9-.6-.9 0 0 .9-.1 1.8-.1 2.7-.2 0-.3.2-.3.4.1 1.1.1 2.1.1 3.2 0 .3 0 .6-.1.9-.8.1-1.5.2-2.1.2-4.6.2-9.2.3-13.9.4a1109.663 1109.663 0 0 1-51.6 0c-8.7-.2-17.6-1-26.2-.5v-.1c-.2-.4-.7-.4-.9 0-.2-.1-.4-.1-.6 0-.2-.4-.9-.4-1 .1-.5 2.6-.9 6.1-.6 9.1-.1 7.4.5 14.7 0 21.9-.2 1.3-.4 2.7-.6 4 .9-9.7.9-19.6 0-29.1.4-13.9 1.3-30.4 15.9-36.8.2-.1.1-.4-.1-.3-11.6 4-15.4 16.8-16.2 27.8-.1 1.1-.2 2.3-.2 3.4v-.2c0-.2-.4-.2-.4.1.1 2.1.1 4.2.2 6.3-.2 5.1-.3 10.1-.9 15.1-1.1 9.1-3.5 17.8-5.8 26.6-.1.3.4.4.5.1 3.5-8.9 5.4-18.5 6.4-28.1-.1 8.5-.5 16.9-1.3 25.5 0 .1-.1.3-.1.4 0 .1-.1.3-.1.4v.3c-.6 2.8-1.3 5.7-1.8 8.6-.1.5.2.8.5.9-.6 2-1.2 4.1-1.8 6.1-.1.3.4.4.5.1.2-.6.4-1.1.6-1.7-.3 1-.5 2-.8 3-.1.3.3.4.4.1 1.7-4.7 3.2-9.5 4.3-14.3.8-2.7 1.5-5.4 2.1-8.3.4-1.2.7-2.3 1-3.5-.1 1.2-.2 2.5-.3 3.7-.3 1.7-.7 3.3-1 4.9-.1-.1-.3 0-.3.1-2.5 8.1-4.9 16.4-6.9 24.6-.1.4.4.5.5.1.6-2 1.2-3.9 1.8-5.9.2.4.8.5 1 .1.5-.9.9-1.9 1.3-2.9-1.2 3.7-2.4 7.4-3.7 11.1-.1.2.3.4.4.2 2.4-5.6 4.2-11.4 5.7-17.3-.4 2-.9 4-1.4 5.9-.1.4.2.6.5.7-1 3.4-1.9 6.7-2.8 10.1 0 .2 0 .3.1.5-.1.2-.2.4-.2.6-.1.3.4.5.5.2.1-.1.2-.3.2-.5.3.1.5 0 .7-.3 2.3-4.7 4-9.8 5.2-15 .8-2.1 1.5-4.3 2-6.6v.7c-.8 4.1-1.7 8.1-2.7 12.2-1.3 4.1-2.8 8.2-4.1 12.3-.1.3.4.5.5.2.5-1.1 1-2.2 1.4-3.4-.1.4-.2.9-.3 1.4-.1.6.3 1 .8 1 0 .2-.1.4-.1.6 0 .2.3.5.5.2.2-.6.5-1.2.7-1.8.9-1.8 1.8-3.7 2.5-5.6-.1.4-.2.9-.3 1.3s.2.8.6.8c-.5 2.1-1 4.3-1.4 6.5 0 .3.3.4.4.1 1-2.8 1.7-5.6 2.2-8.4.7-1.6 1.4-3.4 2-5.1-1 4.9-2.3 9.6-3.3 14.5-.1.4.4.5.5.1 1.4-4.1 2.2-8.4 3-12.7-.1 1.4-.2 2.7-.3 4-.8 4-1.7 7.9-2.1 11.9 0 .3.4.3.5.1.4-1.5.8-3 1.1-4.5.4.2.9.1 1.2-.4 0-.1 0-.1.1-.1s.1-.1.2-.1l-.3 2.1c0 .5.4.8.8.8 0 .3-.1.6-.1.8 0 .3.4.4.5.1.2-.6.4-1.2.6-1.9.4-.8.8-1.6 1.1-2.4-.3 1.6-.7 3.1-.9 4.7-.1.4.4.5.5.1.8-2.2 1.3-4.6 1.7-6.9v.7c0 .1.1.3.1.4-.5 2.1-1.1 4.1-1.6 6.2-.1.3.4.6.6.2.8-1.9 1.4-4 1.8-6.1.2-.1.5-.2.6-.5 0-.1.1-.1.1-.2v.8c0 .3.2.5.4.6-.3 1.6-.6 3.3-.6 4.9 0 .4.5.4.7.1.6-1.8.8-3.6 1.1-5.5.2-.3.3-.6.5-1-.1 1.8-.1 3.6 0 5.3 0 .6.6.9 1.1.9 0 .6-.1 1.3-.1 1.9 0 .4.6.5.7.1.3-1.4.5-2.8.7-4.3.1-.2.1-.4.2-.5.1 2.3.1 4.6.2 7 0 .2.4.3.4.1.3-1.7.4-3.4.4-5.2h.1c0 1.3.1 2.5.2 3.8 0 .4.6.4.6 0 .2-1.5.3-3 .3-4.5l.3-1.5c.1 1.8.3 3.6.6 5.3.1.4.7.3.7-.1v-1.8c.2.2.5.2.7-.1.5-1.2.9-2.5 1.3-3.8.2 0-.1 5.2.7 4.8.8-.4 1.8-5.8 2.3-6.7 6.2-5.1 15.9-7.3 23.2-7.4 9.2-.1 22.3 19.6 26.3 17.6 1.6.5-1.9-6.4-.5-6.6.5 2.3 1.4 4.5 2.6 6.5.1.1.4.1.3-.1-.5-1.3-1-2.6-1.4-3.8 0 0 0 .1.1.1.5.7 1.4.3 1.3-.6-.3-1.7-.8-3.4-1.3-5 1 2.3 2.4 4.4 4.4 5.9.6.4 1.6.1 1.3-.8-.6-1.4-1.2-2.8-1.9-4.2.6.8 1.3 1.4 2.1 2.1.3.2.6.3.9.2.3.4.6.9.9 1.3.2.3.7-.1.5-.4-.3-.5-.5-.9-.8-1.4.1-.2.1-.5 0-.9-.6-1-1.1-2-1.7-3 .5.5 1 1 1.5 1.4.3.2.6.3.9.2.9 1.1 2 2 3.2 2.7.2.1.5-.2.3-.4-.9-1-1.8-2-2.6-3 .1-.2.1-.5-.1-.8l-.6-.9c.8.8 1.7 1.5 2.6 2.1.1 0 .1.1.2.1s.1.1.2.1c.8.5 1.7 1 2.6 1.4.4.2.8-.4.4-.6-1.1-.8-2.1-1.6-3.1-2.5 1.5.9 3.1 1.5 4.9 1.5.3 0 .4-.5.1-.6-2.7-.7-4.9-1.9-6.9-3.8 1 .6 2.1 1.1 3.3 1.5 1.6 1.1 3.3 1.9 5.1 2.4.4.1.6-.4.3-.6-1.4-.8-2.8-1.6-4-2.5v-.4c.4.2.7 0 .8-.4.8.7 1.6 1.3 2.6 1.7h.2c.7.3 1.5.4 2.3.5.3 0 .4-.4.3-.6.6.2 1.3.3 1.9.3.4 0 .4-.5.1-.6-.4-.1-.8-.3-1.2-.4.3-.1.5-.4.6-.7.7.2 1.4.2 2.2.2.4 0 .4-.5.1-.6-.6-.2-1.2-.5-1.8-.7.7.1 1.4.1 2.1 0 .3-.1.3-.5 0-.6-1.2-.2-2.5-.7-3.9-1.4.1-.1.2-.2.2-.4 1.9.7 3.8 1.1 5.2 1.2.3 0 .4-.4.1-.6-1.1-.4-2.9-.9-4.6-1.6.3 0 .5-.2.6-.5.8.5 1.4-.5.9-1.2-.1-.2-.3-.3-.4-.5.3.2.6.5 1 .7.3.2.6.1.8-.1.7.6 1.4 1.1 2.1 1.6.6.4 1.1-.4.7-.9-.2-.2-.3-.4-.5-.5.8.4 1.7.7 2.6.9.3.1.5-.4.2-.5-2.1-1.3-4.1-2.6-5.9-4.2.3.1.6.1.8 0 1.1 1 2.3 2 3.5 2.9.5.4 1.1-.4.7-.9-1-1.2-2.1-2.3-3.1-3.4.1-.1.2-.3.1-.6 1.3 1.6 2.7 3 4.2 4.3.4.3 1.2-.1.8-.6-.7-1-1.4-1.9-2.2-2.9 1 .9 2.1 1.7 3.3 2.3.3.2.7-.2.4-.5-.9-.9-1.7-1.7-2.5-2.6.2 0 .4-.2.4-.4 0 0 .1 0 .1.1.1.1.1.1.2.1.7.4 1.4.7 2.2 1-.7.4-.4 0-.6-.2zm-9.9-53c0-.8-.1-1.6-.2-2.3.1.1.2.2.4.1-.1.7-.1 1.5-.2 2.2zm.3-4.6c0 .5 0 1-.1 1.6 0-.6-.1-1.2-.1-1.8l.2-.2v.4zm-.8-9.1c.3 1.9.5 3.9.6 5.9-.1-.1-.1-.2-.2-.2-.2-2.1-.3-4.1-.6-6.2.1.2.1.3.2.5zm-97.6 41v-.9c.3-1.7.6-3.5.8-5.3v.5c-.2 1.8-.5 3.8-.8 5.7zm4.3 24.7.6-4.2c.1 0 .2.1.4.1-.3 1.3-.7 2.7-1 4.1zm76.6 2.5c-.1-.2-.1-.4-.2-.6 1.1 2.1 2.5 4.2 4.1 6-1.6-1.5-2.9-3.3-3.9-5.4zm14.2 4.5c-.1-.1-.1-.2-.2-.3.4.2.7.5 1.1.7-.3-.1-.6-.2-.9-.4z" fill="#2a232b" stroke-width="none" opacity="1"></path><path id="SvgjsPath9731" d="M50.1 130.6c2-9 2.8-18.4 2.9-27.6 0-.4-.5-.4-.6 0-.3 3.9-.7 7.7-1.1 11.6 0-3.8-.5-7.7-1.1-11.5-.1-.5-.8-.3-.7.2.8 5.4.8 10.7 1 16.1 0 .2.1.2.2.2-.4 3.6-.9 7.3-1.3 10.9.1.3.6.4.7.1zm105.7 6.3c-3.7-7-6.6-13.8-8.2-21.3-.8-7.7-1.1-15.3-1.4-23.2 0-.7-1-.7-1.1 0-.6 5.5-.6 11.1 0 16.6-.1-.2-.4-.1-.4.1.1 4.9 1 9.9 2.5 14.7-.5-1.2-.9-2.3-1.2-3.5-.7-2.4-1.2-5-1.5-7.6 0-.1-.1-.2-.2-.2-.1-.8-.2-1.7-.3-2.6 0-.1-.1-.2-.2-.2-.3-2.8-.5-5.6-.6-8.5 0-.7-1-.7-1 0-.6 5.1-.2 10.3 1 15.3.2 2.4.7 4.7 1.4 7-1.3-3-2.1-6.2-2.3-9.9 0-.3-.5-.3-.5 0v1.9c-.1.1-.1.1-.1.2.1.3.1.7.2 1.1.1 1.7.5 3.3.9 4.9-1.9-5-3.1-10.3-3.6-16-.1-.6-.9-.6-1 0-.5 10.2 3.6 20 10 27.7v.1c-3.5-3.9-6.4-8.2-8.6-13.3-.1-.3-.6-.1-.5.2.6 1.7 1.3 3.4 2.2 5.1-3.5-5.6-6-11.7-6.8-18.7-.1-.6-1-.6-.9 0 0 .6.1 1.2.1 1.7-.2-.1-.4-.1-.5.2-.1.8-.1 1.5-.1 2.2-.2-2.1-.3-4.3-.2-6.4 0-.3-.4-.3-.4 0-.7 7.6.2 15.1 2.6 22-1.9-4.1-3.5-8.4-4.5-13-.1-.5-.8-.3-.7.2 1 7.1 3.2 14 6.9 20.1-.1.1-.1.2 0 .3.4.6.9 1.2 1.4 1.7 1.3 1.9 2.8 3.6 4.4 5.2-1.6-1.5-3.1-3.1-4.5-4.9-3.9-5.9-7.1-12-8.6-19.1-.1-1.8-.2-3.5-.3-5.3 0-.6-.9-.6-1 0-.1 1.8-.2 3.5-.2 5.3-.1-.4-.1-.7-.2-1.1 0-.3-.6-.4-.6 0 .1 1.8.2 3.5.4 5.3.1 1.3.3 2.5.5 3.7.1 2.7.5 5.3 1 7.9-1.3-4.8-2.3-9.6-2.7-14.8 0-.6-.9-.6-.9 0 .2 4.9.7 10 1.8 14.8-1.1-4.1-2-8.2-2.3-12.5 0-.2-.1-.3-.2-.3v-.4c0-.3-.5-.4-.5-.1-1.3 7-1.4 14.6 0 21.8-2.2-10.4-2.7-20.8-1.2-31.6 0-.3-.5-.4-.6-.1-3 13.2-2 27.6 3.2 40.2-4.4-8.8-4.5-18.1-5.3-27.9-.1-.6-.9-.6-.9 0-.7 10.4.2 21.7 6.8 30.2.2.2.5.2.6 0 .2.1.4-.1.3-.3-.7-2.3-1.3-4.5-1.9-6.8.7 2.4 1.5 4.8 2.5 7 .2.4.7.2.8-.1.4 1.6 1.1 3 2.6 3.7.4.1.6-.4.4-.6-1.5-1.5-2.1-4.2-2.6-6.4.8 2.5 2 4.9 3.8 6.7.2.2.6 0 .5-.3-1.1-2.9-2.5-5.6-3.4-8.7.8 2.4 1.8 4.6 3.1 6.8.2.4.9.1.7-.3l-.9-2.4c.4.8.9 1.5 1.5 2.2.2.2.6 0 .5-.3-.6-1.9-1.3-3.8-1.9-5.7.3.6.6 1.1.9 1.6.2.4.9.1.7-.3l-.3-.9c1.2 2.4 2.6 4.8 4.2 7 .3.4.9 0 .6-.4-1.7-2.9-3.1-5.9-4.4-8.9.7 1.1 1.5 2.2 2.4 3.3 1.1 1.8 2.3 3.5 3.6 5.2.4.5 1.2 0 .9-.5-2-2.8-3.7-5.7-5.1-8.7 1.7 2 3.6 3.9 5.6 5.6.3.3.7-.1.4-.4-1.3-1.5-2.6-2.9-3.8-4.3.1-.1.1-.2 0-.3-.4-.6-.9-1.2-1.3-1.8 2.1 2.8 4.7 5.2 7.6 7.1.3.2.6-.2.4-.5-3.3-3-6.2-6.1-8.6-9.6l.1-.1c2.4 3.2 5.3 6.1 8.6 8.4.4.2.8-.3.5-.6-1.2-1.1-2.4-2.2-3.5-3.4 1.3 1.3 2.7 2.4 4.2 3.5.3.2.7-.3.4-.5-2.9-2.7-5.6-5.5-8-8.4.2.2.4.1.6 0 2.1 2.6 4.5 4.9 7.2 6.6.5.6 1 1.1 1.6 1.7.4.4.9-.2.6-.6-.1-.1-.1-.1-.1-.2.2-.1.3-.4 0-.6-.6-.4-1.1-.9-1.6-1.3-.2-.2-.3-.4-.5-.6 1 .8 2 1.5 3.1 2.2.3.2.6-.2.4-.4-.6-.6-1.2-1.1-1.8-1.6.3 0 .5-.4.2-.7-9-9.2-13.5-20.5-14.4-33.1.8 6 2.8 11.9 6 17 2.6 5.6 6.8 10.5 12.4 13.2.3.1.5-.2.2-.4-2.7-1.9-5.2-4-7.3-6.4 1.1 1 2.2 1.9 3.5 2.7.2.1.4.1.5-.1 1.6 1.5 3.3 2.9 5.2 4.1.3.2.6-.2.4-.5-.2-.1-.3-.3-.5-.4-.7-1-1.4-1.9-2.1-2.9.1 0 .1-.1.1-.1.2.3.4.5.6.8.3.3.8-.1.6-.4-.4-.6-.7-1.1-1-1.7h.1c.6.8 1.1 1.6 1.7 2.4.2.3.7-.1.5-.4-.6-1-1.1-2-1.6-3 .6 1 1.2 2 1.9 3-.1.6.5.3.3-.1zm-29.2 4.5c0 1.4.2 2.8.3 4.2-.7-3.4-1.3-6.8-1.7-10.2.4 1.9.8 4 1.4 6zm5.2-11-.9-2.1c-.1-.7-.2-1.3-.3-2 .1.3.2.5.3.8-.1.1-.1.1-.1.2 1.6 4.1 3.7 8 6.3 11.5-2-2.6-3.8-5.4-5.3-8.4zm10.7 10.7c.1.1.1.1.2.1l.3.3c-.1-.1-.3-.3-.5-.4zm3 .8c-.8-.7-1.6-1.4-2.3-2.1-.6-1-1.3-1.9-1.9-2.9 1.3 1.8 2.7 3.5 4.2 5zm9.1-11.3c-2.3-4.7-4-9.2-5.1-14 .2 0 .4-.1.3-.3-.9-4.7-1.6-9.3-1.4-14.1 0-.3-.5-.3-.5 0 0 .6-.1 1.2-.1 1.8-.1 0-.2.1-.2.2-.7 9.2 1.2 18.9 6.5 26.6.2.3.6.1.5-.2zm-5.4-40.3c.5-1.9.8-3.9.8-5.9 0 1.9.1 3.7-.2 5.6 0 .3.4.4.4.1.5-2.1.8-4.5.3-6.7-.1-.3-.6-.2-.6.1 0-.9-.1-1.9-.2-2.8-.1-.4-.6-.4-.6 0-.1 3.2-.4 6.3-.6 9.5.2.4.6.4.7.1zm-96-1.7c-.1-.7-.1-1.4-.2-2.1.1.6.2 1.3.2 1.9 0 .3.6.4.6 0-.2-2.8-.2-5.7-.7-8.5 0-.1-.1-.2-.2-.2v-1.4c0-.3-.5-.4-.5-.1-.6 3.5-.4 6.9.2 10.4.1.4.7.4.6 0zm-2.1.2c-.2-4.4-.2-8.7-.2-13.1 0-.3-.5-.4-.5-.1-.8 4.3-.6 8.9.4 13.2 0 .2.3.2.3 0zM78 120.2c-.1 11 .6 21.7-3.2 32.2.2-1 .4-2.1.5-3.1 2-10 2.5-20.3 1.5-30.5 0-.1 0-.1-.1-.1v-.4c-.1-.4-.7-.5-.7 0 0 2.9 0 5.7-.1 8.6-.1-1.5-.2-3-.4-4.6-.1-.5-.8-.5-.8 0 0 7.4.3 14.8-.1 22.1-.2 1.5-.4 3-.7 4.4.8-7.7 1-15.5.5-23.3-.2-5.3-.9-10.6-2.1-15.7-.1-.6-1.1-.4-1 .1.1 1.4.2 2.9.3 4.3-.1-.3-.1-.6-.2-.9-.1-.5-.8-.5-1-.1-.2-1.6-.4-3.2-.7-4.8-.1-.6-1.1-.4-1 .1 0 1.2.1 2.4.2 3.7-.4-2.7-.9-5.3-1.6-7.9-.1-.6-1.1-.5-1 .1.1.9.2 1.9.3 2.8-.2 0-.4.2-.4.5-.1.9-.1 1.8-.2 2.7-.1-.9-.2-1.7-.3-2.6-.1-.4-.7-.3-.7.1 0 .7 0 1.4.1 2.1-.4-3.3-1-6.5-2-9.7-.1-.4-.7-.2-.7.2v.2c-.2-.2-.6-.1-.8.1 0-.9-.1-1.8-.1-2.7 0-.5-.8-.6-.8 0-.1 1.7-.2 3.4-.2 5.1-.1-.5-.2-1-.3-1.6-.1-.4-.8-.3-.8.1.1 2.5.2 5 .2 7.5-.3 0-.5.2-.5.6l-.3 3.6c-.2 0-.3.1-.3.3 0 1.7-.1 3.3-.2 4.9 0 .3-.1.6-.1.9 0-1.3-.1-2.6-.2-3.9.5-6.5.5-13-.2-19.5-.1-.7-1.1-.7-1.1 0 0 1.7-.1 3.4-.1 5.2-.2-2.5-.5-4.9-1-7.3-.1-.5-.9-.4-.9.1.3 5.1.4 10 .3 14.9-.2-.1-.5-.1-.5.2-.5 8.7-1.6 17-3.4 25.6-.1.5.6.7.8.2.1-.3.2-.6.2-.8 0 .3.3.5.6.4-.9 3.7-1.8 7.3-2.8 11.1-.1.4.5.7.7.3 1.4-3.3 2.5-6.7 3.5-10.2-.5 3.2-1 6.3-1.6 9.6 0 .1-.1.2-.1.3-.1.4.5.6.6.3 1.3-3.1 2.5-6.5 3.3-9.9-.4 2.4-.9 4.9-1.5 7.4-.1.5.6.7.8.2.3-1 .6-1.9.9-2.9-.1.5-.2 1.1-.4 1.6-.1.4.5.6.6.2.8-2.1 1.4-4.2 1.9-6.4 0 .3-.1.6-.1.9 0 .4.5.6.8.3-.4 1.9-.9 3.9-1.4 5.9-.1.3.4.4.5.1 2.5-6.2 3.5-13.1 3.5-19.8 0-.2-.3-.2-.3 0-.4 4.2-1.1 8.3-2 12.4 1.3-7.1 2.1-14.5 1.9-21.8 0-.8.1-1.6.1-2.3.6 7.9.7 15.7-.1 23.6-.5 3.3-1.2 6.5-1.8 9.8-.1.3.3.4.4.1 1.5-4 2.3-8.3 2.6-12.6.4-3.2.7-6.4.7-9.6.2 2.2.3 4.4.4 6.6-.8 5.5-1.8 11-3.1 16.5-.1.3.4.4.5.1 1-3 1.8-6.1 2.3-9.2-.5 5.7-1.4 11.2-2.8 16.9-.1.3.4.5.5.1 1.6-4.4 2.7-9.2 3.1-14-.3 4.3-1 8.6-1.7 13.1-.1.4.4.5.6.2.1-.2.1-.4.2-.5.1.1.2.1.3-.1.5-1.2.9-2.5 1.3-3.7.2.2.6.2.7-.2.4-2.4.8-4.9 1-7.4.2-1.8.4-3.7.5-5.6 0-.1 0-.1-.1-.1.1-1.9.1-3.8.2-5.6 0-.2-.1-.3-.2-.3 0-1.4-.1-2.9-.1-4.3.2 2.3.5 4.6.7 6.9-.3 5.2-.6 10.3-.9 15.5-.2 1-.4 2.1-.6 3.1-.1.3.3.4.4.1.1-.5.3-.9.4-1.4.1 0 .2-.1.2-.2.1-.4.2-.9.3-1.4.1 0 .1.1.2.1-.3 2.4-.5 4.7-.6 7.1 0 .4.6.5.7.1.6-2.9 1.1-5.9 1.5-8.9-.1 1.6-.2 3.1-.4 4.7 0 .3.4.3.5.1.8-3.9 1.2-7.8 1.3-11.8 0 2.9.1 5.9.1 8.8-.1 1.9-.1 3.9-.1 5.8 0 .2 0 .5-.1.7 0 .1 0 .1.1.2v.4c0 .6.8.5.8 0 .2 0 .3-.1.3-.3 1-6 1.2-12.6.8-19 .1-.7.1-1.4.1-2.1.1 2.9.2 5.9.2 8.9 0 .1.1.2.1.3-.2 3.7-.4 7.4-.7 11.1 0 .5.7.6.8.1.3-1.8.5-3.6.7-5.4 0 .1.1.3.2.3-.2 1.5-.4 3-.7 4.5-.1.7.9 1 1.1.3l.3-1.5c.1.2.5.4.6.1 4.5-10.2 4.6-21.7 3.4-32.7 0-.5-.7-.5-.7 0zm-21.9-6.4v-.7c0-.2.1-.5.1-.7-.1.4-.1.9-.1 1.4zm5.6-7c0-.1-.1-.1-.1-.2v-2.9c.1 1.3.2 2.6.3 3.8-.1-.2-.2-.5-.2-.7zm3.5 22.2c-.1-.4-.1-.9-.2-1.3.1-.7.1-1.3.2-2v3.3zm-1-2.7s-.1 0 0 0c-.1-2.2-.1-4.4-.1-6.7.1 2.2.1 4.4.1 6.7zm-.1.7v-.1.1zm.3 9.7c0-1.3 0-2.6-.1-3.9 0-.2 0-.3.1-.5.1 1.5.1 3 0 4.4zm6-4.5v-.4c0-.1 0-.1-.1-.2v-1c0-1.5 0-3.1.1-4.6v6.2z" fill="#1b141c" stroke-width="none" opacity="1"></path></g></g><g id="svga-group-humanbody-back"><path id="SvgjsPath9549" d="M166.5 181.1c-10.9-6.6-27.6-8.4-35-12.1-4.9-2.5-9.1-4.7-8.9-17.8s1.9-42.4 1.9-42.4H75.4s1.6 29.4 1.9 42.4-4.2 15.6-8.9 17.8c-7.4 3.5-24.1 5.4-35 12.1-10.8 6.6-10 18.9-10 18.9v19.7h153.3V200c-.1 0 .7-12.3-10.2-18.9z" fill="#f0c7b1" stroke-width="none" opacity="1"></path></g><g id="svga-group-chinshadow-single"><path id="SvgjsPath9545" d="M124.5 108.9H75.4c.1 1.8 1.6 29.7 1.9 42.3 0 1.4 0 2.7-.1 3.9 1.7 2.2 3.4 4.2 5.1 5.9 5.5 6.1 8.4 6.5 17.7 6.5s12.2-.4 17.7-6.5c1.6-1.7 3.3-3.7 5-5.9-.1-1.2-.1-2.5-.1-3.9.2-12.7 1.8-40.5 1.9-42.3z" fill="#d19271" stroke-width="none" opacity="0.65"></path></g><g id="svga-group-humanbody-front"><path id="SvgjsPath9550" d="M78.7 156.8c.5 4.8 1.7 9.4 3.1 13.9.8 2.3 1.6 4.6 2.6 6.9.8 2 1.7 4.2 3.1 5.9.3.4 1 0 .9-.5-.5-2.2-1.6-4.3-2.4-6.4-.9-2.2-1.7-4.4-2.5-6.6-1.5-4.4-2.8-8.9-4.1-13.3-.2-.4-.8-.3-.7.1zm41.3-1c-1.3 8.2-3.9 16.1-5.4 24.2-.1.4.4.5.6.2 3.1-7.7 4.1-16.1 5.1-24.3-.1-.2-.3-.2-.3-.1zm-25.8 11.9c-.9 3.6 1.9 8.6 6.2 7.6.5-.1.4-.8 0-1-1.4-.5-2.9-.9-3.9-2.1-1.1-1.2-1.5-2.9-1.4-4.5 0-.4-.8-.5-.9 0z" fill="#d19271" stroke-width="none" opacity="1"></path><path id="SvgjsPath9551" d="M177.3 219.7c-.1-6.6-.3-13.1-.3-19.7l-.3-.3c.1 0 .1 0 .2.1s.1.2.1.1v-1.4c0-.5-.1-.9-.1-1.4-.1-.9-.3-1.9-.5-2.8-.5-1.8-1.1-3.6-2-5.3-1.7-3.4-4.4-6.2-7.7-8.1-3.6-2.2-7.6-3.8-11.6-5.1-4-1.3-8.1-2.4-12.1-3.5-4-1.2-8.1-2.2-11.8-4.2-1.9-1-3.6-2.1-4.8-3.6-1.2-1.6-1.9-3.5-2.3-5.5-.8-4-.4-8.2-.3-12.4l.7-12.6 1.5-25.2.1-1.4h-1.4c-8.2 0-16.4 0-24.6.1l-24.6.3h-.9l.1.9c.8 11.9 1.6 23.8 2.1 35.7.1 3 .3 6 .2 8.9-.1 2.9-.4 5.9-1.6 8.6-.6 1.3-1.4 2.5-2.4 3.5s-2.3 1.8-3.6 2.4c-2.6 1.3-5.4 2.2-8.3 3-5.8 1.5-11.6 2.8-17.3 4.7-2.8.9-5.7 2-8.4 3.4-1.3.7-2.7 1.4-4 2.4-1.3.9-2.4 1.9-3.5 3.1-2.1 2.3-3.6 5.2-4.5 8.1-.5 1.5-.8 3-1 4.6-.1.8-.1 1.6-.1 2.4v2.3l-.2 17.9v1.3h1.4l38.3.2c12.8.1 25.5.1 38.3 0 12.8-.1 25.6-.1 38.3-.3 12.8-.2 25.6-.5 38.3-.7h.6v-.5zm-77.2-1.6H61.8l-37 .2-.1-16.6v-2.2c0-.7 0-1.4.1-2.1.1-1.4.4-2.8.8-4.2.8-2.7 2.1-5.3 3.9-7.5.9-1.1 2-2.1 3.1-2.9 1.1-.9 2.4-1.6 3.7-2.3 2.6-1.4 5.3-2.5 8.1-3.5 5.6-2 11.4-3.4 17.1-5.1 2.9-.8 5.8-1.7 8.5-3.1 1.3-.7 2.7-1.5 3.8-2.6 1.1-1.1 2-2.4 2.6-3.9 1.2-2.9 1.5-5.9 1.6-8.9 0-3-.1-6-.2-9l-1.3-34.8 23.5.4c7.7.1 15.4.1 23.1.1-.4 7.9-.8 15.9-1.1 23.8-.2 4.2-.2 8.4-.3 12.6 0 4.2-.2 8.5.8 12.8.5 2.1 1.3 4.2 2.8 6 1.4 1.7 3.4 2.9 5.3 3.8 3.9 1.9 8 2.8 12.1 3.8s8.2 2 12.2 3.3c4 1.3 7.9 2.8 11.5 5 3.2 1.9 5.8 4.7 7.5 8 .9 1.6 1.5 3.4 1.9 5.2.2.9.4 1.8.4 2.7.1.5.1.9.1 1.4V200l-.3 19c-12.6-.2-25.1-.5-37.7-.7-12.7-.1-25.5-.1-38.2-.2z" fill="#c27b55" stroke-width="none" opacity="1"></path></g><g id="svga-group-clothes-single"><path id="SvgjsPath9431" d="M100.8 184.4c-1.1-3-8.2-7.8-13.2-10.6s-7-4.9-10-8.8c-1.8-3.6-1-8.9-1-8.9-.1-4.7-.6-9.5-.9-14.7-8.2-1.1-13.1 3.7-14 4.6-6.5 6.3-3.1 8.5-5.7 11.5-9.2 2.1-7.1 14.2-10.7 15-8.7 1.9-21.2 7-24.2 21 0 0-1.6 9.2-1.6 26.7h160.7c0-17.5-1.6-26.7-1.6-26.7-3.2-15.2-17.6-19-26.1-21.4-1.4-.6.2-5.2-2.5-10.5-1.4-2.7-3.9-6.5-9.3-7.8 0 0-1.2-6.6-5.4-9.9-4.2-3.3-11.2-2.5-11.2-2.5s-.3 14.1-.3 16.1c0 3.2-.2 4.9-1.6 6.6s-4.4 3.9-6.9 7.5-10.1 7.5-11.7 9c-1.4 1.4-2.8 3.8-2.8 3.8z" fill="#565656" stroke-width="none" opacity="1"></path><path id="SvgjsPath9432" d="M105.6 187.4c-.6.6-1.7 3.4-1.8 5.7s1.8 11.5 2.1 13.4-1 7.4-1 8.5 2.8 2.8 3.1 1.7c.3-1.1 1.2-8.4.2-10.9s-2.2-10.1-2.2-11.6 1.1-5.6 1.6-6.5c0 0 .2-.8-.6-.9-.8-.1-1.4.6-1.4.6z" fill="#d6d6d6" stroke-width="none" opacity="1"></path><path id="SvgjsPath9433" d="m95.6 186.8.1-.2s1.8-1.3 1.9.9c0 0-1.2 2.8-1.2 4.8s2.2 11.9 2.5 14.1-2.7 10.4-3.1 10.5-2.1-.9-2.6-1.3c-.4-.4 2.5-6.9 2.8-9.9.3-2.9-.4-8.7-1.2-12.2-.8-3.5.4-5.9.8-6.6v-.1z" fill="#d6d6d6" stroke-width="none" opacity="1"></path><path id="SvgjsPath9434" d="M181.4 204.3c-.2-2.6-.4-5.2-.7-7.9l-.2-2-.1-1v-.3c0-.1 0-.2-.1-.3l-.1-.5c-.3-1.4-.7-2.7-1.2-4-1.1-2.6-2.6-5-4.4-7.1-1.9-2.1-4.1-3.8-6.5-5.2-4.6-2.7-9.6-4.2-14.5-5.5v-.1c-.1-.4-.1-.9-.1-1.4-.1-1-.1-2-.3-3.1-.3-2.1-1.1-4.2-2.1-6-1-1.8-2.4-3.6-4.1-4.9-1.5-1.2-3.2-2-5-2.6-.4-1.4-.8-2.8-1.4-4.1-.7-1.6-1.6-3.1-2.9-4.4-1.3-1.4-3.4-2.5-5-3-5.1-1.2-8.6-.4-8.6-.4s-1.2 9.6-2.9 22.5c0 0-3.9 4.9-5.3 6.8-.4.4-.7 1-1.1 1.4-.2.2-.3.4-.5.6l-.6.6c-.8.8-1.7 1.5-2.6 2.2-1.8 1.4-3.8 2.7-5.7 4-.5.3-1 .7-1.4 1.1-.5.4-.8.9-1.2 1.3-.4.5-.7.9-1 1.4l-.5.8-.2.4-.1.1-.2-.3-.3-.6c-.2-.4-.5-.7-.8-1l-1.8-1.8c-1.3-1.1-2.6-2.2-4-3.2s-2.8-1.9-4.2-2.8c-1.4-.9-2.9-1.7-4.2-2.7-2.7-2-4.5-4.6-6.6-7.1-1.1-1.3-1.7-3.5-1.9-4.9-.1-1 .6-10.8-.2-17.9 0-.4-.7-.9-5.6-1.1-5 .1-8.8 3.3-10.4 4.9-1.5 1.6-3.1 3.3-3.9 5.6-.4 1.1-.5 2.4-.7 3.4-.1.9-.3 1.4-.7 1.9-1.7.4-3.3 1.3-4.5 2.5-1.4 1.4-2.3 3-2.9 4.7-.7 1.7-1.1 3.4-1.5 4.9-.2.8-.5 1.5-.8 2.1-.1.3-.3.4-.4.5 0 0-.1 0-.1.1l-.6.1c-3.3.8-6.6 1.9-9.8 3.4-3.1 1.6-6 3.6-8.4 6.2-2.4 2.6-4.2 5.7-5.3 9-.3.8-.5 1.7-.7 2.5l-.1.7c0 .1 0 .2-.1.4v.3l-.2 1.3c-.2 1.7-.3 3.4-.5 5-.5 6.7-.6 13.4-.5 20.1 0 .4.1 1.3.5 1.3 13.4-.2 160.9.2 160.9.2.8 0 1.5-.7 1.5-1.5-.1-5-.2-10.3-.6-15.6zm-27.8-33.4zm-28.8-26.1c1 .6 4.7 2.5 6 5.1.1.8.2 1.8 0 2.6s-.6 1.5-1.1 2.3c-2.1 2.6-6.1 6.3-6.5 6.8 5.1-8.8 1.6-16.8 1.6-16.8zm-50.4 17.7c.9 1.4 4 4.3 5 5.5-.4-.3-3.9-3-4.3-3.2-1.2-.8-1.8-1.7-2.7-2.9-1.8-2.2-2.7-5.1-3.4-8-.3-1.4-.6-2.9.3-3.8 2.2-1.5 5.9-2 6.1-2.1.2 2.7-3.2 5.8-3.1 8.5-.1.3-.1.4-.1.7v.8c.1.5.2 1 .3 1.4.3.7 1.4 2.3 1.9 3.1zM48 171.8c.5-.9.8-1.8 1-2.6.5-1.7.8-3.2 1.4-4.7.5-1.5 1.3-2.8 2.3-3.8s2.3-1.7 3.7-2c.2 0 .3-.1.5-.2.1 1.1.2 2.2.4 3.3.3 1.7.7 3.4 1.4 5 .3.9.8 1.6 1.2 2.4.5.7 1 1.5 1.5 2.2 2.3 2.8 5.1 4.8 8.2 6.4 3.1 1.6 6.3 2.8 9.7 3.4-3.1-1.4-6.1-3-8.9-4.8-1.4-.9-2.8-1.8-4-2.9-1.3-1.1-2.5-2.2-3.4-3.4-.5-.6-1-1.3-1.4-1.9-.4-.7-.8-1.4-1.1-2.1-.7-1.4-1.1-3.1-1.6-4.6-.4-1.4-.7-2.9-.9-4.3.1-.2-.8-5.1 4.4-9.9 1.4-1.5 3-2.8 4.6-3.8 4.2-2.4 6.8-1.4 8.1-1.2.1 2 .2 3.1.3 5.1-.3.1-4.2 1-4.5 1.1-.7.3-1.5.5-2.2 1.1-.7.5-1.1 1.5-1.2 2.3-.1.9 0 1.7.1 2.5.4 3.1 1.3 6.3 3.3 8.9 1 1.3 2.3 2.4 3.6 3.2l3.9 2.4c1.3.8 2.6 1.5 3.9 2.2.8.6 1.5 1.2 2.3 1.7 1.4 1 2.9 1.8 4.4 2.6 1.4.8 2.9 1.7 4.3 2.6s2.8 1.9 4.1 2.9c.7.5 1.3 1.1 1.9 1.7.3.3.6.6.8.9.1.2.2.3.3.5l.2.3c.1.1.2.3.3.4 0 0 .1 0 .2-.1v-.1l.1-.1.1-.2.2-.4.5-.7c.3-.5.7-.9 1.1-1.4.4-.4.8-.9 1.2-1.2.4-.3.9-.7 1.4-1 2-1.2 4-2.4 5.9-3.8 1-.7 1.9-1.4 2.8-2.2.2-.2.4-.4.7-.6.2-.2.4-.4.6-.7.4-.5.7-.9 1.1-1.4 1.5-1.7 3.2-3.3 4.9-4.9l2.6-2.4c.7-.7 3.2-2.8 3.6-3.2 1.5-1.3 2.8-2.7 3.8-4.5 1-1.8.9-4 .2-6.1-1.1-2.4-5.6-5-6.9-5.8l-.1-2.5c.2.1 4.4-.9 8.1 1.4 2.5 1.6 4.6 5.3 5.3 6.7.6 1.4 1.1 2.9 1.4 4.4.1.5.5.9 1 1.1.1 0 .1 0 .2.1-.2 2-.6 4-1.4 5.8-.6 1.5-1.3 2.9-2.3 4-1 1.2-2.2 2.3-3.4 3.3-.6.5-1.2 1-1.8 1.6l-1.9 1.5c-1.3 1-2.6 2-3.9 2.9-2.6 1.9-5.3 3.8-7.9 5.8 3.1-1.3 6-2.8 8.8-4.5 2.8-1.7 5.6-3.6 8.1-5.8.6-.6 1.3-1.1 1.8-1.7l.9-.9.8-1c1.1-1.4 1.8-3 2.3-4.7.6-2 .8-4 .7-6.1 1.4.5 2.6 1.1 3.7 2.1 1.4 1.1 2.4 2.6 3.3 4.2.9 1.6 1.5 3.3 1.7 5.1.1.9.2 1.8.2 2.8 0 .5 0 1 .1 1.6 0 .3.1.6.2 1.1.1.2.2.5.4.7l.1.1-1.4 1.4c-.9.8-1.9 1.6-2.8 2.4-1.9 1.6-3.9 3.1-5.9 4.5-2 1.4-4 2.9-6.1 4-1.1.6-2.1 1.1-3.2 1.5-1.1.4-2.3.8-3.5 1.1-2.4.7-4.8 1.3-7.2 1.8-2.4.6-4.8 1.1-7.2 1.5l-3.6.6c-.6.1-1.2.1-1.7.1-.6 0-1.1-.2-1.6-.4l-.2-.1c.3-1.1.6-2.3 1-3.3.1-.2 0-.5-.1-.7s-.4-.3-.7-.3c-.5 0-.9.3-1.2.6.3-.4.8-.6 1.2-.6.2 0 .5.1.6.3.1.2.2.4.1.7-.5 1.2-.8 2.4-1.2 3.7-.3 1.2-.6 2.6-.4 3.9.2 2.6.6 5.1 1.1 7.7.1.6.3 1.3.4 1.9l.3.9c.1.3.2.6.2.9.2 1.2.2 2.5.2 3.8-.1 1.3-.2 2.6-.3 3.8-.1.6-.2 1.3-.3 1.9 0 .1-.1.3-.1.4-.1 0-.4 0-.6-.1-.5-.2-1-.6-1.3-1-.1-.1-.1-.2-.2-.3v-.3c0-.3.1-.6.1-.9.2-1.3.4-2.5.6-3.8.1-.6.2-1.3.2-1.9 0-.6 0-1.4-.1-2l-.8-3.8c-.5-2.5-1.1-5.1-1.4-7.6-.1-.6-.1-1.3-.1-1.9 0-.5.1-.9.2-1.4 0 0 .1-.4.1-.5.2-.6.3-1.2.6-1.9-.2.6-.4 1.2-.6 1.9 0 .1-.1.3-.1.4-1-.6-2.1-.9-3.3-1.1-1.3-.2-2.5-.3-3.8-.5.2-.8.4-1.5.7-2.2 0-.2-.1-.5-.2-.7s-.2-.4-.5-.6c-.5-.2-1 0-1.4.3.4-.2.9-.4 1.3-.2s.5.8.5 1.2c-.5 1.2-1 2.4-1.2 3.8-.1.6-.2 1.4-.1 2 .1.7.2 1.3.3 2 .4 2.6.9 5.2 1.4 7.8l.3 1.9c.1.6.2 1.3.2 1.9-.1 1.2-.4 2.5-.8 3.7-.4 1.2-.8 2.5-1.2 3.7-.2.6-.5 1.2-.7 1.8-.1.1-.1.2-.2.4-.2-.1-.4-.1-.7-.3-.3-.1-.6-.3-.8-.5-.1-.1-.2-.2-.4-.3l-.1-.1c0-.2.1-.5.2-.8l.3-.9 1.3-3.7c.4-1.3.8-2.5 1-3.9.2-1.4.1-2.7 0-4-.2-2.6-.7-5.2-1.2-7.8-.6-1.8-.6-3.9-.1-5.7h.1s0-.1-.1-.1c.2-.6.4-1.2.7-1.8-.3.5-.6 1.1-.8 1.7-.5-.6-.8-1.4-.6-1.9.2-.6.8-1 1.6-.9.7 0 1.4.4 2 .9.3.3.5.6.6 1 .1.3-.1.7-.5 1 .2 0 .5-.1.7-.3s.3-.5.3-.7c0-.5-.2-1-.5-1.4-.6-.8-1.5-1.4-2.5-1.5-.5 0-1.1.1-1.6.4s-.8.8-.8 1.4c-.1 1.1.6 1.8 1.4 2.2-.1.4-.2.7-.3 1.1l-5.5-.7c-2.6-.4-5.2-.6-7.8-1-2.6-.4-5.2-.8-7.7-1.3-1.3-.2-2.5-.5-3.7-.9-1.2-.3-2.4-.9-3.6-1.4-2.4-1-4.7-2.3-6.9-3.5-2.3-1.3-4.5-2.6-6.7-4-1.1-.7-2.2-1.4-3.2-2.2l-1.5-1.2-.6-.6c-.1-1 .1-1.3.3-1.6zm52 47.5-20.1.2-20.1.1c-13.2.1-26.3 0-39.5-.2.1-6.4.4-12.9 1.1-19.3.2-1.6.4-3.3.6-4.9l.2-1.2v-.3c0-.1 0-.2.1-.3l.1-.6c.2-.8.4-1.5.7-2.3 1.1-3 2.8-5.7 5-8s4.9-4.1 7.8-5.5c2.9-1.4 6-2.5 9.1-3.2l.6-.1c.4-.1.7-.2 1-.5.2-.1.3-.2.4-.4.5.8 1.2 1.4 1.9 2.1 1 .9 2 1.8 3 2.6 2.1 1.6 4.2 3.1 6.5 4.6 2.2 1.4 4.5 2.7 6.9 3.9 1.2.6 2.4 1.1 3.8 1.5 1.3.4 2.6.7 3.9 1 5.2 1 10.4 1.6 15.7 1.9 2.2.1 3.4.2 5.5.2-.1 1.2 0 2.5.2 3.7.5 2.6.8 5.2.9 7.8.1 1.3.1 2.6-.1 3.9-.2 1.2-.6 2.5-1 3.7l-1.3 3.7c-.1.3-.2.6-.3 1-.1.3-.2.6-.2 1.1v.3c0 .1.1.2.1.2l.1.1c.1.1.2.1.2.2.1.1.3.2.4.3.3.2.6.4.9.5.3.2.6.3 1.1.4h.4c.2-.1.2-.1.3-.2.1-.1.2-.2.2-.3.1-.2.2-.3.2-.5.3-.6.5-1.2.7-1.9.4-1.2.8-2.5 1.2-3.8.3-1.3.7-2.6.8-4 0-.8-.2-1.4-.3-2-.1-.6-.2-1.3-.4-1.9-.5-2.6-1.1-5.1-1.6-7.7-.1-.6-.2-1.3-.3-1.9-.1-.6-.1-1.3 0-1.9 0-.2.1-.4.1-.6 2.4.1 4.9-.1 7.2.7-.1.5-.2.9-.2 1.4-.1.6 0 1.3.1 1.9.3 2.6.7 5.1 1.1 7.7l.6 3.8c.2 1.2-.1 2.5-.3 3.7l-.7 3.8c-.1.3-.1.6-.1 1 0 .1 0 .5.1.7.1.2.2.4.3.5.5.6 1.1 1 1.7 1.3.3.1.7.3 1.3.2.3-.1.6-.4.7-.6.1-.2.1-.4.1-.5.1-.7.2-1.3.3-2 .2-1.3.2-2.6.3-3.9 0-1.3 0-2.6-.3-3.9-.1-.3-.2-.7-.3-1l-.3-.9c-.2-.6-.4-1.2-.5-1.9-.6-2.5-1.1-5-1.5-7.6-.2-1-.1-2.1.2-3.1.6.3 1.3.5 1.9.6.3.1.7.1 1 .1h1c1.3 0 2.5-.2 3.8-.3 5-.6 9.9-1.6 14.7-2.9 1.2-.4 2.4-.7 3.6-1.2 1.2-.4 2.4-1 3.5-1.7 2.2-1.3 4.2-2.8 6.1-4.4 1.9-1.6 3.8-3.2 5.6-5 .9-.9 1.8-1.8 2.6-2.8.4-.5.8-1 1.2-1.6.2.1.4.3.6.4.1 0 .1.1.2.1 5 1.4 9.9 2.9 14.2 5.5 4.3 2.5 7.7 6.2 9.6 10.7.4 1.1.8 2.3 1.1 3.5l.1.4v.4l.1.9.2 1.9c.3 2.6.5 5.1.7 7.7.3 4.7.5 9.4.5 14.1l-38.6.2c-13.2.2-26.6.4-40 .6zm4.7-30.4c-.3-.4-.4-.8-.4-1.1 0-.4.1-.7.3-1 .4-.5 1.2-.7 1.9-.6.7.1 1.5.5 1.8 1.1.2.3.2.6.1 1s-.4.7-.7 1.1c.4-.1.8-.4 1.1-.9.3-.4.3-1.1.1-1.6-.4-1-1.4-1.6-2.4-1.8-.5-.1-1-.1-1.5.1s-1 .5-1.2 1c-.2.4-.3 1-.2 1.5.3.6.7 1 1.1 1.2zM41 209.2c-.7-2.7-1.6-5.3-2.8-7.8-1.2-2.5-2.7-4.9-4.5-7-1.8-2.1-3.8-4.1-6.2-5.4 1.1.8 2.1 1.8 3 2.8 1 1 1.8 2 2.6 3.1 1.6 2.2 3 4.5 4.2 7 .6 1.2 1.2 2.4 1.6 3.7.5 1.2.9 2.6 1.4 3.8.4 1.3.7 2.6 1.1 3.9.3 1.3.6 2.7.9 4-.1-1.4-.3-2.7-.5-4.1-.2-1.3-.4-2.6-.8-4zm125.6-13.9c-1.8 1.9-3.3 4.1-4.5 6.4-1.2 2.3-2.2 4.8-3 7.3-.4 1.2-.6 2.5-1 3.8l-.6 3.9c.4-1.2.7-2.5 1.1-3.7.4-1.2.8-2.5 1.2-3.7.2-.6.5-1.2.7-1.8s.5-1.2.8-1.8c.5-1.2 1.1-2.3 1.7-3.5 1.2-2.2 2.6-4.4 4.2-6.4.8-1 1.7-1.9 2.6-2.9.9-.9 1.9-1.8 3-2.4-2.4 1.1-4.4 2.9-6.2 4.8z" fill="#373737" stroke-width="none" opacity="1"></path></g><g id="svga-group-head" transform="matrix(1,0,0,1,0,0)"><g id="svga-group-ears-left-move" transform="matrix(1,0,0,1,0,0)"><g id="svga-group-ears-left"><path id="SvgjsPath9447" d="M62 92.9c-.2-.3-3.3-4.3-5.9-6.7-2.6-2.4-3.4-2.4-4.6-.9-1.3 1.5-2.9 9.1-2.5 12.4.4 3.4 3.6 8.7 5.2 11.7 1.7 3 3.3 6.7 5.1 6.3 1.9-.4 4.4-4.6 5.7-7.7 1.3-3.1.5-10.8-3-15.1z" fill="#f0c7b1" stroke-width="none" opacity="1"></path><path id="SvgjsPath9448" d="M65.8 102c.1.9.2 1.7.2 2.6s0 1.7-.2 2.6c-.1.4-.2.9-.3 1.3-.1.4-.3.7-.4 1.1-.3.7-.6 1.4-1 2.1-.7 1.3-1.5 2.6-2.6 3.6-.5.5-1.1 1-1.8 1.3-.4.1-.9.1-1.3 0-.4-.2-.8-.5-1.1-.8-1.2-1.3-1.9-2.8-2.7-4.3-.7-1.5-1.5-2.9-2.2-4.3-.7-1.5-1.5-2.9-2.1-4.4-.3-.8-.7-1.5-.9-2.3-.3-.8-.5-1.6-.6-2.5-.2-1.7 0-3.4.1-5 .2-1.6.5-3.2.8-4.8.2-.8.4-1.6.8-2.3l.3-.6c.1-.2.3-.4.4-.5.2-.3.5-.6.9-.8.3-.2.8-.3 1.2-.3.4.1.8.3 1.1.5.7.4 1.2 1 1.8 1.5 2.2 2.2 4 4.8 5.9 7.2 1.9 2.4 3.2 5.7 3.7 9.1zM55.7 86.4c-1.1-.9-2.4-1.9-3.1-1.2-.2.1-.4.4-.6.6l-.3.3c-.1.1-.1.3-.2.4-.3.6-.5 1.3-.8 2-.5 1.4-.9 2.9-1.1 4.5-.3 1.5-.5 3.1-.4 4.7.1.8.3 1.6.6 2.3.3.8.6 1.5.9 2.2.7 1.5 1.5 2.8 2.3 4.2.8 1.4 1.7 2.7 2.5 4.1.4.7.8 1.4 1.2 2s.8 1.3 1.3 1.7c.5.4.9.6 1.3.4.5-.2.9-.6 1.4-1.1.9-1 1.6-2.1 2.3-3.4.4-.6.7-1.3 1-1.9.2-.3.3-.7.4-1l.2-.5c0-.2.1-.3.1-.5.3-1.4.4-3 .3-4.6s-.4-3.2-.9-4.8c-.5-1.6-1.2-3-2.2-4.2-1.9-2.1-4-4.3-6.2-6.2z" fill="#e1ac8f" stroke-width="none" opacity="1"></path><path id="SvgjsPath9449" d="M51.2 99.4c-.3-2.3-.5-7.8.8-9.6 2.2-2.9 6 6.4 6.9 9.3 0 .1.1.2.1.3.2.3-.1.7-.4.6-.4-.2-.9-.6-1.3-.8-1.1-.5-1.6.5-1.3 1.8.4 1.8 1.4 2.9 2.2 4.3.1.2 0 .4-.2.3-1.6-.9-3.5-4.5-3.1-6.6.3-2 1.9-1.8 3.1-.8-.7-1.7-1.5-3.3-2.5-4.8-.6-.9-1.2-2-2.2-2.2-1.2-.2-1 .3-1.2 1.8-.8 4.8-.3 10.4 2.5 14.5.1.1 0 .2-.1.1-1.8-2.3-3-4.9-3.3-8.2z" fill="#d19271" stroke-width="none" opacity="1"></path></g></g><g id="svga-group-ears-right-move" transform="matrix(1,0,0,1,0,0)"><g id="svga-group-ears-right"><path id="SvgjsPath9450" d="M138 92.9c.2-.3 3.3-4.3 5.9-6.7 2.6-2.4 3.4-2.4 4.6-.9 1.3 1.5 2.9 9.1 2.5 12.4s-3.6 8.7-5.2 11.7c-1.7 3-3.3 6.7-5.1 6.3-1.9-.4-4.4-4.6-5.7-7.7s-.5-10.8 3-15.1z" fill="#f0c7b1" stroke-width="none" opacity="1"></path><path id="SvgjsPath9451" d="M138 92.9c1.9-2.4 3.8-5 5.9-7.2.5-.5 1.1-1.1 1.8-1.5.3-.2.7-.4 1.1-.5.4-.1.9.1 1.2.3.3.2.6.5.9.8.1.1.2.3.4.5l.3.6c.3.7.6 1.5.8 2.3.4 1.6.7 3.2.8 4.8.2 1.6.3 3.3.1 5-.1.9-.4 1.7-.6 2.5-.3.8-.6 1.6-.9 2.3-.7 1.5-1.4 3-2.1 4.4-.8 1.5-1.5 2.9-2.2 4.3-.8 1.4-1.4 3-2.7 4.3-.3.3-.7.6-1.1.8-.4.2-.9.2-1.3 0-.8-.3-1.3-.8-1.8-1.3-1-1.1-1.8-2.3-2.6-3.6-.4-.7-.7-1.4-1-2.1-.2-.4-.3-.7-.4-1.1-.1-.4-.3-.8-.3-1.3-.1-.9-.2-1.7-.2-2.6s.1-1.7.2-2.6c.4-3.4 1.7-6.7 3.7-9.1zm.1.1c-1 1.2-1.7 2.7-2.2 4.2-.5 1.6-.8 3.2-.9 4.8-.1 1.6 0 3.2.3 4.6 0 .2.1.3.1.5l.2.5c.1.3.3.7.4 1 .3.7.6 1.3 1 1.9.7 1.2 1.5 2.4 2.3 3.4.4.5.9.9 1.4 1.1.4.2.8 0 1.3-.4s.9-1 1.3-1.7c.4-.6.8-1.3 1.2-2 .8-1.4 1.7-2.8 2.5-4.1.8-1.4 1.6-2.8 2.3-4.2.4-.7.7-1.5.9-2.2.3-.8.5-1.6.6-2.3.1-1.6-.1-3.2-.4-4.7-.3-1.5-.7-3-1.1-4.5-.2-.7-.5-1.4-.8-2-.1-.1-.1-.3-.2-.4-.1-.1-.1-.2-.3-.3-.2-.2-.4-.5-.6-.6-.7-.6-2 .4-3.1 1.2-2.2 1.5-4.3 3.7-6.2 6.2z" fill="#e1ac8f" stroke-width="none" opacity="1"></path><path id="SvgjsPath9452" d="M148.8 99.4c.3-2.3.5-7.8-.8-9.6-2.2-2.9-6 6.4-6.9 9.3 0 .1-.1.2-.1.3-.2.3.1.7.4.6.4-.2.9-.6 1.3-.8 1.1-.5 1.6.5 1.3 1.8-.4 1.8-1.4 2.9-2.2 4.3-.1.2 0 .4.2.3 1.6-.9 3.5-4.5 3.1-6.6-.3-2-1.9-1.8-3.1-.8.7-1.7 1.5-3.3 2.5-4.8.6-.9 1.2-2 2.2-2.2 1.2-.2 1 .3 1.2 1.8.8 4.8.3 10.4-2.5 14.5-.1.1 0 .2.1.1 1.8-2.3 3-4.9 3.3-8.2z" fill="#d19271" stroke-width="none" opacity="1"></path></g></g><g id="svga-group-faceshape-wrap"><g id="svga-group-faceshape-single"><path id="SvgjsPath9531" d="M143.2 82v-.3c-1.3-29.9-20.7-46.4-43.2-46.4S58.1 51.8 56.9 81.7v.3c.1 9.4-.6 25.5 2 31.6 1.3 3.1 13.8 23.8 23.4 34.2 5.5 6.1 8.4 6.5 17.7 6.5 9.3 0 12.2-.4 17.7-6.5 9.6-10.4 22.1-31.1 23.4-34.2 2.6-6.1 1.9-22.2 2.1-31.6z" fill="#f0c7b1" stroke-width="none" opacity="1"></path><path id="SvgjsPath9532" d="M117.7 147.8c9.6-10.4 22.1-31.1 23.4-34.2 2.6-6.1 1.9-22.2 2.1-31.6v-.3c-1.3-29.9-20.7-46.4-43.2-46.4S58.1 51.8 56.9 81.7v.3c.1 9.4-.6 25.5 2 31.6 1.3 3.1 13.8 23.8 23.4 34.2 5.5 6.1 8.4 6.5 17.7 6.5s12.2-.4 17.7-6.5zm-30.3 1.4c-1.2-.9-2.3-2-3.4-3.2-2.3-2.4-4.4-6-6.5-8.6-4.2-5.3-8.1-10.8-11.9-16.3-.9-1.4-1.9-2.8-2.8-4.2-.5-.7-.9-1.4-1.3-2.1l-.6-1c-.2-.3-.4-.6-.5-1-.6-1.3-.9-2.9-1.2-4.5s-.5-3.3-.7-4.9c-.6-6.7-.7-13.5-.8-20.3 0-6.7 1.1-13.4 3.6-19.7.1-.4.3-.8.4-1.2l.6-1.1 1.1-2.2c.3-.8.8-1.4 1.3-2.2l1.3-2.1 1.5-2c.5-.6 1-1.3 1.6-1.9 1.2-1.2 2.2-2.4 3.5-3.4.6-.5 1.3-1.1 1.9-1.6l2-1.4 1-.7c.3-.2.7-.4 1.1-.6l2.1-1.2c.7-.4 1.5-.6 2.2-1 .8-.3 1.5-.7 2.3-.9 1.6-.5 3.1-1 4.7-1.3 6.3-1.4 12.9-1.5 19.2-.1l2.4.5 2.3.7c1.6.4 3 1.1 4.5 1.7.8.3 1.4.8 2.1 1.1.7.4 1.5.7 2.1 1.2 1.3.9 2.8 1.7 4 2.8 5.1 4.1 9.3 9.5 12 15.6 2.7 6.1 4.1 12.9 4.4 19.6-.1 3.4-.1 6.8-.2 10.2-.1 3.4-.2 6.8-.6 10.2-.3 3.3-.8 6.8-1.8 9.8l-.5 1.1c-.2.3-.4.7-.6 1-.4.7-.9 1.4-1.3 2.1-.9 1.4-1.9 2.8-2.9 4.2-2 2.8-4 5.5-6 8.2-1 1.3-2 2.7-3.1 4-1 1.3-2.1 2.7-3.1 4-2.1 2.6-4.2 6.2-6.5 8.6-2.2 2.5-4.4 4.7-6.9 5.5-2.5.9-5.8.9-9.2.9-3.3 0-6.8.1-9.4-.6-1.1-.2-2.2-.8-3.4-1.7z" fill="#c27b55" stroke-width="none" opacity="1"></path></g></g><g id="svga-group-mouth-single-move" transform="matrix(1,0,0,1,0,0)"><g id="svga-group-mouth-single"><path id="SvgjsPath9705" d="M86.62 127.55s2.05 2.59 5.62 4.12 13.46 4.37 22.92-4c0 0-1.83-1.01-4.25-2.59s-3.79-2.39-5.87-2.71-3.23.58-4.6.64c-1.37.05-2.88-.8-4.51-.66-3.58.3-9.36 4.5-9.36 4.5l.05.7z" fill="#da7c87" stroke-width="none" opacity="1" transform="translate(0 2)"></path><path id="SvgjsPath9706" d="M85.9 127.36c1.93 1.35 3.95.8 6.06.2 1.1-.31 1.84-.44 3.03-.4 1.4.05 1.65.32 2.77.82.84.37 1.64.61 2.55.48 1.07-.15 1.89-.82 2.89-1.19 2.34-.87 4.17.21 6.35.86 2.06.61 4.33 1.01 6.18-.31.5-.36.08-1.04-.47-.81-2.86 1.23-5.62-.26-8.45-.67-2.23-.32-3.49.46-5.64.81-2.45.4-4.48-1.02-6.92-1.03-2.61-.02-5.17 1.6-7.62 0-.78-.53-1.48.71-.73 1.24z" fill="#cb5f6c" stroke-width="none" opacity="1" transform="translate(0 2)"></path></g></g><g id="svga-group-eyes-left-move" transform="matrix(1,0,0,1,0,0)"><g id="svga-group-eyes-left" transform="matrix(0.9499998000000001,0,0,0.9499998000000001,3.9763449458435076,4.725018899999995)"><g id="svga-group-eyesback-left"><path id="SvgjsPath9487" d="M90.2 96.4s-.9.8-3.3 1.1-8.7 1.1-13.3-.2c-4.6-1.3-4.2-1.5-4.3-2.1-.1-.5.7-2.4 5-3.2 4.3-.8 8.5.1 10.6.9 2 .9 5.3 3.5 5.3 3.5z" fill="#ffffff" stroke-width="none" opacity="1"></path></g><g id="svga-group-eyesiriswrapper-left" transform="matrix(1,0,0,1,0,0)"><g id="svga-group-eyesiriscontrol-left" transform="matrix(1,0,0,1,0,0)"><g id="svga-group-eyesiris-left"><path id="SvgjsPath9566" d="M80.1 88.4c2.8 0 5.2 2.3 5.2 5.2s-2.3 5.2-5.2 5.2-5.2-2.3-5.2-5.2 2.3-5.2 5.2-5.2z" fill="#4e60a3" stroke-width="none" opacity="1"></path><path id="SvgjsPath9567" d="M80.1 90.8c1.5 0 2.8 1.2 2.8 2.8s-1.2 2.8-2.8 2.8-2.8-1.2-2.8-2.8 1.2-2.8 2.8-2.8z" fill="#000000" stroke-width="none" opacity="1"></path><path id="SvgjsPath9568" d="m79.4 91.3-.6-.6c-.2-.2-.4-.3-.7-.3-.2 0-.5.1-.7.3-.2.2-.3.4-.3.7s.1.5.3.7l.6.6c.2.2.4.3.7.3.2 0 .5-.1.7-.3.3-.5.4-1.1 0-1.4zm2.5 4.7c.9 0 .9-1.4 0-1.4s-.8 1.4 0 1.4z" fill="#ffffff" stroke-width="none" opacity="1"></path></g></g></g><g id="svga-group-eyesfront-left"><path id="SvgjsPath9495" d="M73.6 97.3c4.6 1.3 10.9.5 13.3.2 2.4-.3 3.3-1.1 3.3-1.1s-3.2-2.6-5.3-3.5c-2.1-.9-6.3-1.7-10.6-.9-3.2.6-4.4 1.8-4.8 2.5 0-6.3 4.8-11.5 10.6-11.5 5.9 0 10.6 5.2 10.6 11.5S86 106 80.1 106c-5.5 0-10-4.5-10.6-10.4.3.5 1.2.8 4.1 1.7z" fill="#f0c7b1" stroke-width="none" opacity="1"></path><path id="SvgjsPath9496" d="M90.1 95.9c-1.2-3.3-4.1-5.6-7.5-6.2-3.9-.7-7.5 1-10.7 2.9-.1 0-.2-.1-.1-.1 5.5-4.7 16.4-4.9 18.5 3.5-.1-.1-.2 0-.2-.1z" fill="#e1ac8f" stroke-width="none" opacity="1"></path><path id="SvgjsPath9497" d="M90.2 96.6c-5.3-4.4-12.4-6.2-18.9-3.1-.3.1-.5.3-.8.4-1 1.3-.9 2.1.4 2.2.7.2 1.4.4 2.1.5 1.8.4 3.7.6 5.6.7 3.4.2 6.7-.1 10-.4.2 0 .2.2 0 .3-4.4 1.4-9.2 1.3-13.7.7-1.6-.2-8.7-.9-5.9-4.3 1-1.2 3.2-1.7 4.7-2 2.1-.5 4.2-.6 6.3-.4 3.8.5 7.7 2.3 10.3 5.2.2.1 0 .3-.1.2z" fill="#000000" stroke-width="none" opacity="1"></path></g></g></g><g id="svga-group-eyes-right-move" transform="matrix(1,0,0,1,0,0)"><g id="svga-group-eyes-right" transform="matrix(0.9499998000000001,0,0,0.9499998000000001,6.023695054156491,4.725018899999995)"><g id="svga-group-eyesback-right"><path id="SvgjsPath9488" d="M109.8 96.4s.9.8 3.3 1.1 8.7 1.1 13.3-.2c4.6-1.3 4.2-1.5 4.3-2.1.1-.5-.7-2.4-5-3.2-4.3-.8-8.5.1-10.6.9-2 .9-5.3 3.5-5.3 3.5z" fill="#ffffff" stroke-width="none" opacity="1"></path></g><g id="svga-group-eyesiriswrapper-right" transform="matrix(1,0,0,1,0,0)"><g id="svga-group-eyesiriscontrol-right" transform="matrix(1,0,0,1,0,0)"><g id="svga-group-eyesiris-right"><path id="SvgjsPath9569" d="M119.9 88.4c2.8 0 5.2 2.3 5.2 5.2s-2.3 5.2-5.2 5.2-5.2-2.3-5.2-5.2 2.4-5.2 5.2-5.2z" fill="#4e60a3" stroke-width="none" opacity="1"></path><path id="SvgjsPath9570" d="M119.9 90.8c1.5 0 2.8 1.2 2.8 2.8s-1.2 2.8-2.8 2.8-2.8-1.2-2.8-2.8 1.3-2.8 2.8-2.8z" fill="#000000" stroke-width="none" opacity="1"></path><path id="SvgjsPath9571" d="m119.3 91.3-.6-.6c-.2-.2-.4-.3-.7-.3-.2 0-.5.1-.7.3-.2.2-.3.4-.3.7s.1.5.3.7l.6.6c.2.2.4.3.7.3.2 0 .5-.1.7-.3.3-.5.4-1.1 0-1.4zm2.5 4.7c.9 0 .9-1.4 0-1.4s-.9 1.4 0 1.4z" fill="#ffffff" stroke-width="none" opacity="1"></path></g></g></g><g id="svga-group-eyesfront-right"><path id="SvgjsPath9498" d="M126.4 97.3c-4.6 1.3-10.9.5-13.3.2-2.4-.3-3.3-1.1-3.3-1.1s3.2-2.6 5.3-3.5c2.1-.9 6.3-1.7 10.6-.9 3.2.6 4.4 1.8 4.8 2.5 0-6.3-4.8-11.5-10.6-11.5-5.9 0-10.6 5.2-10.6 11.5S114 106 119.9 106c5.5 0 10-4.5 10.6-10.4-.3.5-1.2.8-4.1 1.7z" fill="#f0c7b1" stroke-width="none" opacity="1"></path><path id="SvgjsPath9501" d="M109.9 95.9c1.2-3.3 4.1-5.6 7.5-6.2 3.9-.7 7.5 1 10.7 2.9.1 0 .2-.1.1-.1-5.5-4.7-16.4-4.9-18.5 3.5.1-.1.2 0 .2-.1z" fill="#e1ac8f" stroke-width="none" opacity="1"></path><path id="SvgjsPath9502" d="M109.8 96.6c5.3-4.4 12.4-6.2 18.9-3.1.3.1.5.3.8.4 1 1.3.9 2.1-.4 2.2-.7.2-1.4.4-2.1.5-1.8.4-3.7.6-5.6.7-3.4.2-6.7-.1-10-.4-.2 0-.2.2 0 .3 4.4 1.4 9.2 1.3 13.7.7 1.6-.2 8.7-.9 5.9-4.3-1-1.2-3.2-1.7-4.7-2-2.1-.5-4.2-.6-6.3-.4-3.8.5-7.7 2.3-10.3 5.2-.2.1 0 .3.1.2z" fill="#000000" stroke-width="none" opacity="1"></path></g></g></g><g id="svga-group-facehighlight-single"></g><g id="svga-group-eyebrows-left-move" transform="matrix(1,0,0,1,0,0)"><g id="svga-group-eyebrows-left-rotate" transform="matrix(1,1.7453292519943295e-9,-1.7453292519943295e-9,1,1.4176201545978984e-7,-1.3606350535155798e-7)"><g id="svga-group-eyebrows-left"><path id="SvgjsPath9407" d="M67 82.5c.1-.3.3-.6.5-.8.1-.2.3-.5.5-.7.2-.2.4-.4.7-.6.5-.9 1.7-1.6 2.5-2.1.9-.5 1.8-.9 2.9-.9 1-.2 2.1-.2 2.9.2.4 0 .7.1 1 .3 1.1-.1 2.3.2 3.3.4 1.4.3 2.8.6 4.1 1.2 1.4 0 2.8.1 4.1.5h.2c.1 0 .2.1.2.1h.1c.1 0 .2.1.3.2.1.1 0 .3 0 .4v.1c0 .2 0 .4-.1.6 0 .6-.1 1.1-.5 1.6 0 .1 0 .2-.1.3-.1.5-.2 1.1-.7 1.4-.2.2-.5.3-.8.3-.1 0-.2 0-.3-.1h-.6c-.6.2-1.4 0-1.9-.1-.6-.1-1.2-.3-1.7-.6-1.8-.3-3.5-.8-5.3-1.2-1.6-.4-4-.4-5.4-1.3-.7.1-1.3.2-2 .2-.3 0-.7.1-1.1 0-.2 0-.5 0-.7-.2 0 0-.1 0-.1-.1h-.1l-.4.4c-.3.3-.7.7-1.2.8-.1.2-.3 0-.3-.3z" fill="#2a232b" stroke-width="none" opacity="1"></path><path id="SvgjsPath9408" d="M87.7 83c-.1-.6-.2-1.2-.4-1.7 0-.2.2-.3.3-.1.7 1 .9 2.8.2 3.9-.1.2-.3.1-.3-.1.1-.8.2-1.4.2-2zm-3.4-3.2c1.3.8 2.1 2.6 2.1 4 0 .2-.3.3-.3.1-.2-.7-.4-1.3-.7-1.9-.3-.7-.9-1.2-1.3-1.9-.3-.2 0-.4.2-.3zm-3.3-.7c2.2.8 3.8 3.2 4.2 5.3 0 .2-.2.2-.3.1-.4-1-.9-2-1.7-2.8-.7-.9-1.6-1.4-2.5-2.2-.2-.1.1-.5.3-.4zm-4.9-.8c2.4.6 4.8 2.6 5.8 4.7.1.2-.3.4-.4.2-.8-1-1.6-1.9-2.6-2.7-.9-.7-2-1.2-3-1.8-.2-.1-.1-.4.2-.4zM67.4 82c1.6-1.8 3.8-4.3 6.5-4 .2 0 .2.3 0 .3-2.6.2-4.3 2.5-6.3 3.9-.2.1-.4-.1-.2-.2z" fill="#3a353a" stroke-width="none" opacity="1"></path><path id="SvgjsPath9409" d="M90.9 80.6c-.1-.3-.5-.3-.6 0-.3 1.1-.3 2.4-1.2 3.3-.6.7-1.5.8-2.4.7.3-1.5.2-3.7-.8-4.9-.2-.2-.5-.1-.4.2 0 .8.4 1.6.5 2.4.1.8.2 1.5.2 2.3-.1 0-.2 0-.3-.1-.3-2-1.3-4.1-2.8-5.5 2.3.5 4.6.9 6.9 1.1.1 0 .2-.2.1-.2-2.6-.9-5.3-1.4-8-2-2.4-.5-5.1-1.4-7.6-1.5-2.1-.1-3.6.9-5 2.2-1.5 1.4-3.1 3.1-4.1 4.9l-.2.2c-.1.1-.2.3-.1.4 0 0 0 .1-.1.1-.2.4.3.7.6.4.1 0 .2 0 .3-.1 1.4-.7 2.5-1.4 4.1-1.6 1.3-.2 2.7-.1 4 .1 2.9.4 5.6 1.3 8.3 2.1 2.1.6 4.9 1.7 6.9.2 1.7-1 1.9-3.1 1.7-4.7zm-13.4 1.3c-.5-.1-1.1-.2-1.7-.3.1-1.1-.3-2.3-.8-3.3.7.6 1.4 1.2 2 1.9.6.6.9 1.4 1.5 2-.4-.1-.7-.2-1-.3zM70 79.5c1.2-1.1 2.5-1.7 4-1.9.2.8.6 1.6.7 2.4l.3 1.5c-.3 0-.7-.1-1-.1-.5-.9-1.3-1.8-2.3-2.1-.2-.1-.3.2-.2.4.4.4.9.8 1.3 1.2.1.2.2.3.4.5-1.9-.1-3.8.1-5.4.8.6-1 1.3-1.9 2.2-2.7zm15.2 4.8c-.2-.1-.4-.1-.6-.2-.4-.1-.9-.3-1.3-.4-.8-1.8-2.1-3.6-3.7-4.8-.2-.1-.4.1-.3.2 1.2 1.4 2.2 2.9 3.3 4.4-1.1-.4-2.2-.7-3.2-1.1-.2-1.1-1.2-2.2-1.9-3-.7-.7-1.5-1.4-2.4-1.9.4 0 .8.1 1.3.1 2 .3 4 .8 6 1.2v.1c.7 1.1 1.5 2.2 2.1 3.3.2.7.4 1.4.7 2.1z" fill="#1b141c" stroke-width="none" opacity="1"></path></g></g></g><g id="svga-group-eyebrows-right-move" transform="matrix(1,0,0,1,0,0)"><g id="svga-group-eyebrows-right-rotate" transform="matrix(1,1.7453292519943295e-9,-1.7453292519943295e-9,1,1.4176202967064455e-7,-2.127084570702209e-7)"><g id="svga-group-eyebrows-right"><path id="SvgjsPath9410" d="M133 82.5c-.1-.3-.3-.6-.5-.8-.1-.2-.3-.5-.5-.7-.2-.2-.4-.4-.7-.6-.5-.9-1.7-1.6-2.5-2.1-.9-.5-1.8-.9-2.9-.9-1-.2-2.1-.2-2.9.2-.4 0-.7.1-1 .3-1.1-.1-2.3.2-3.3.4-1.4.3-2.8.6-4.1 1.2-1.4 0-2.8.1-4.1.5h-.2c-.1 0-.2.1-.2.1h-.1c-.1 0-.2.1-.3.2-.1.1 0 .3 0 .4v.1c0 .2 0 .4.1.6 0 .6.1 1.1.5 1.6 0 .1 0 .2.1.3.1.5.2 1.1.7 1.4.2.2.5.3.8.3.1 0 .2 0 .3-.1h.6c.6.2 1.4 0 1.9-.1.6-.1 1.2-.3 1.7-.6 1.8-.3 3.5-.8 5.3-1.2 1.6-.4 4-.4 5.4-1.3.7.1 1.4.2 2 .2.3 0 .7.1 1.1 0 .2 0 .5 0 .7-.2 0 0 .1 0 .1-.1h.1l.4.4c.3.3.7.7 1.2.8.1.2.3 0 .3-.3z" fill="#2a232b" stroke-width="none" opacity="1"></path><path id="SvgjsPath9411" d="M112.3 83c.1-.6.2-1.2.4-1.7 0-.2-.2-.3-.3-.1-.7 1-.9 2.8-.2 3.9.1.2.3.1.3-.1-.1-.8-.2-1.4-.2-2zm3.4-3.2c-1.3.8-2.1 2.6-2.1 4 0 .2.3.3.3.1.2-.7.4-1.3.7-1.9.3-.7.9-1.2 1.3-1.9.3-.2 0-.4-.2-.3zm3.3-.7c-2.2.8-3.8 3.2-4.2 5.3 0 .2.2.2.3.1.4-1 .9-2 1.7-2.8.7-.9 1.6-1.4 2.5-2.2.2-.1-.1-.5-.3-.4zm4.9-.8c-2.4.6-4.8 2.6-5.8 4.7-.1.2.3.4.4.2.8-1 1.6-1.9 2.6-2.7.9-.7 2-1.2 3-1.8.2-.1.1-.4-.2-.4zm8.7 3.7c-1.6-1.8-3.8-4.3-6.5-4-.2 0-.2.3 0 .3 2.6.2 4.3 2.5 6.3 3.9.2.1.4-.1.2-.2z" fill="#3a353a" stroke-width="none" opacity="1"></path><path id="SvgjsPath9412" d="M110.6 85.3c2 1.5 4.8.4 6.9-.2 2.8-.8 5.5-1.8 8.3-2.1 1.3-.2 2.7-.3 4-.1 1.6.2 2.7.9 4.1 1.6.1.1.2.1.3.1.3.3.8 0 .6-.4 0 0 0-.1-.1-.1 0-.1 0-.3-.1-.4l-.2-.2c-1-1.8-2.6-3.5-4.1-4.9-1.4-1.3-2.9-2.3-5-2.2-2.5.1-5.2 1-7.6 1.5-2.7.6-5.4 1.1-8 2-.2.1-.1.2.1.2 2.3-.2 4.6-.6 6.9-1.1-1.5 1.4-2.5 3.5-2.8 5.5-.1 0-.2 0-.3.1.1-.8.1-1.5.2-2.3.1-.8.5-1.6.5-2.4 0-.2-.3-.3-.4-.2-1 1.2-1.1 3.4-.8 4.9-.9.1-1.7 0-2.4-.7-.8-.9-.9-2.2-1.2-3.4-.1-.3-.5-.3-.6 0 0 1.7.2 3.8 1.7 4.8zm10.9-3.2c.5-.6.9-1.4 1.5-2 .6-.7 1.3-1.3 2-1.9-.5 1-.9 2.3-.8 3.3-.6.1-1.2.2-1.7.3-.3.2-.6.3-1 .3zm10.8 0c-1.6-.7-3.6-.9-5.4-.8.1-.2.2-.3.4-.5.4-.5.9-.8 1.3-1.2.1-.1.1-.4-.2-.4-1 .3-1.8 1.2-2.3 2.1-.3 0-.7.1-1 .1l.3-1.5c.2-.8.5-1.6.7-2.4 1.4.2 2.7.8 4 1.9.8.9 1.5 1.8 2.2 2.7zm-16.7.2c.6-1.2 1.4-2.2 2.1-3.3v-.1c2-.4 4-.9 6-1.2.4-.1.9-.1 1.3-.1-.9.5-1.7 1.2-2.4 1.9-.7.8-1.7 1.9-1.9 3-1.1.3-2.2.7-3.2 1.1 1-1.5 2.1-2.9 3.3-4.4.1-.2-.1-.3-.3-.2-1.6 1.2-2.9 3-3.7 4.8-.4.1-.9.3-1.3.4-.2.1-.4.1-.6.2.2-.8.4-1.5.7-2.1z" fill="#1b141c" stroke-width="none" opacity="1"></path></g></g></g><g id="svga-group-beardwrap"><g id="svga-group-beard-single-move" transform="matrix(1,0,0,1,0,0)"><g id="svga-group-beard-single"></g></g></g><g id="svga-group-mustache-single-move" transform="matrix(1,0,0,1,0,0)"><g id="svga-group-mustache-single"></g></g><g id="svga-group-nose-single-move" transform="matrix(1,0,0,1,0,0)"><g id="svga-group-nose-single"><path id="SvgjsPath9686" d="M105.06 106.65c.56.92 2.64 3.61 3.09 4.9.45 1.29-.13 3.22-1.48 3.61s-3.61-.39-3.93-.19c-.32.19-1.87 2.06-2.58 1.93-.71-.13-2.64-2.13-3.03-2.13-.39 0-2.13.45-2.97.45-.84 0-2.9-.71-2.64-2.51.26-1.81 2.45-5.54 2.9-6.06.45-.52 1.48-2.32 1.74-3.42s.58-7.03.71-8.38c.13-1.35 1.35-2.97 2.58-3.09 1.23-.13 3.35.77 3.55 2.9.19 2.13.58 6.38.77 8.12.19 1.74.58 2.71 1.29 3.87z" fill="#f0c7b1" stroke-width="none" opacity="1" transform="translate(0 1)"></path><path id="SvgjsPath9687" d="M97.62 85.76c-.84 3.5-.96 7.24-1.34 10.81-.4 3.83-1.14 7.78-1.09 11.63 0 .31.48.39.55.07.78-3.52.88-7.26 1.24-10.84.39-3.82 1.1-7.79.98-11.63 0-.18-.29-.24-.34-.04z" fill="#c27b55" stroke-width="none" opacity="1" transform="translate(0 1)"></path><path id="SvgjsPath9688" d="M94.46 106.19c-1.03 1.37-1.9 2.87-2.65 4.41-.49 1-1.09 2.17-.77 3.32.53 1.89 2.93 2.49 4.5 1.58.47-.27.26-.99-.27-1-.92-.01-1.98.28-2.72-.5-.88-.94-.01-2.63.38-3.57.58-1.39 1.28-2.72 1.83-4.12.07-.19-.2-.26-.3-.12z" fill="#c27b55" stroke-width="none" opacity="1" transform="translate(0 1)"></path><path id="SvgjsPath9689" d="M94.31 113.98c2.84-.21 3.38 3.37 6.07 3.45 2.31.07 2.5-3.41 4.69-3.3.26.01.34-.35.13-.47-2.49-1.47-2.95 2.86-5.24 2.59-1.36-.16-2.32-2.16-3.54-2.73-.83-.39-1.43-.36-2.23.02-.22.09-.11.46.12.44z" fill="#c27b55" stroke-width="none" opacity="1" transform="translate(0 1)"></path><path id="SvgjsPath9690" d="M104.29 115.6c1.87.42 4.05-.16 4.49-2.24.22-1.04-.13-2.07-.67-2.95-.89-1.44-2.03-2.66-2.87-4.15-.14-.25-.49-.12-.51.14-.11 1.67 1.13 2.83 2.02 4.12.82 1.19 1.53 2.83.15 4-.63.54-1.83.44-2.6.59-.26.04-.25.43-.01.49z" fill="#c27b55" stroke-width="none" opacity="1" transform="translate(0 1)"></path><path id="SvgjsPath9691" d="M102.45 109.98c-.41-.74-1.47-.85-2.06-.26-.05.05-.24.29-.3.36-.07.09-.2.26-.23.29-.07.1-.12.21-.18.32l-.12.28c0-.01-.01.01-.03.05-.06.06-.12.13-.18.2-.18.19-.36.38-.5.6-.42.67-.08 1.42.48 1.84.87.65 2.13.13 2.74-.61.76-.89.96-2.03.38-3.07z" fill="#f8d5c3" stroke-width="none" opacity="1" transform="translate(0 1)"></path></g></g><g id="svga-group-hair-front"><path id="SvgjsPath9727" d="M155.5 145.7c-1-.6-1.9-1.1-2.7-1.8 0-.1 0-.3-.1-.4-6.5-6.2-10.2-13.3-12.2-20.8 0-.6-.1-1.2-.1-1.8 0 .1.1.2.1.3.4 1.6.8 3.1 1.3 4.6.1.2.2.2.3.2.9 2.3 2.1 4.5 3.4 6.6.8 1.4 1.8 2.7 2.9 4 .1.1.2.1.3.1.6.7 1.2 1.3 1.8 2 .3.3.8-.2.5-.5-1-1.2-1.9-2.4-2.7-3.6-5.7-10-6.4-20.7-5.4-31.7 1.6-6.1 3.5-12.1 5-18.3 0-.2.1-.3.1-.5l.1-.1c1.1-3.2 1.7-6.4 1.9-9.7.2-1.3.3-2.6.3-4 .1-4.8-.1-11.5-3.1-15.8.1-.4 0-.8-.1-1.2-.5-1.1-1.1-2.2-1.7-3.1-1.8-5-4.9-9.6-8.3-13.6-1.4-1.7-2.9-3.2-4.4-4.5-5.4-5.8-12.9-9.8-21-11.2-13.7-2.3-35.4 2.3-35.2 19.7-7.2-2.2-15.4 1.3-20.2 6.8-2.8 3.2-4.5 6.9-5.4 10.9-2 4.6-2.7 9.6-2.2 14.7-.1 1.6.1 3.2.5 4.8.2 2.6.5 5.3.6 7.9 0 .2.3.3.4.1.4-.9.7-1.8.8-2.7.8 1.9 2 3.7 3.7 5.1l.1.1c.2.3.3.5.5.8.4.9.8 1.8 1.1 2.8l.3 1.2c-.1 0-.1.1-.1.2.2.5.3.9.5 1.4.7 3 1.4 5.9 2 8.9.9 7.2.2 14.2-.4 21.8 0 .3.2.5.5.5V126.5c-.1.5-.1 1-.2 1.4 0 .3.5.5.5.2.2-.8.4-1.6.5-2.3 5.4-11.5 2.4-24.1 1.3-36.3-1.4-15.5 2.5-31 19.4-33.9.3 0 .6.1 1 .2.6.1 1.1-.5.8-1-.1-.2-.3-.4-.4-.5.1 0 .2 0 .3-.1.1.2.1.3.2.5s.4.2.6 0c.2.2.3.4.6.6.5.5 1.5 0 1.4-.7h.5c.2.3.6.1.6-.2l.1-.1c.6.5 1.3.9 2.2 1 .4 0 .7-.5.6-.8.1 0 .1-.1.1-.1.7.8 1.5 1.4 2.4 2 .8.5 1.5-.5 1.1-1.2.5.4 1 .8 1.8 1 .5.2.9-.2 1-.6.1 0 .1.1.2.1.3.5.7 1.1 1.1 1.5.7.7 2 0 1.7-1 .5.6 1.6.6 1.8-.1.3.4.6.7 1 1 .6.4 1.7.2 1.6-.7 0-.3-.1-.6-.1-.9.2.5.5 1 .8 1.4.4.5 1.5.1 1.4-.6-.1-.7 0-1.4 0-2 .2-.1.4-.2.5-.3-.1.6-.1 1.3 0 1.9.2.9 1.7.9 1.8 0 .1-.7.3-1.4.7-2-.2.5-.3 1-.3 1.6 0 1 1.4 1.5 1.9.5.3-.5.6-1 1-1.5v.7c.1 1 1.2 1.3 1.8.5.5-.8 1.1-1.4 1.7-1.9-.3.4-.6.9-.7 1.4-.1.5.4 1 .9.7.2-.2.5-.3.8-.5.1.1.3.2.6.2 1-.2 2.1-.3 3.2-.3 4.1.3 7.4 2.1 10.3 4.8 2.6 4 4.4 8.8 5.4 12.8 1 4.2 1.1 8.4.6 12.5-4.3 14.1-9.2 32.2-2.8 46 1.1 4.7 3 9.2 6.1 13.2.2.2.5 0 .4-.2-1.9-3-3.3-6-4.3-9.1 1.4 2 3 3.9 5 5.7 1.6 1.5 3.4 2.8 5.5 3.9.8.4 1.6.1 2.1-.5 1.5 1 3.1 1.7 4.8 2.2.2.1.4-.1.4-.2.3.1.6.3.8.4.5.2.8-.2.7-.6.1 0 .1.1.2.1.2.1.3 0 .4-.1.3.1.6.3.9.4.1-.1.4-.7 0-.9zm-94.3-43.4c-.1-.6-.2-1.2-.4-1.8-.1-.9-.2-1.8-.3-2.6 0-.6-.1-1.2-.2-1.7-.2-1.2-.3-2.4-.4-3.5-.3-3.2-.2-6.4-.2-9.6v-.3c-.1 6.5.9 13 1.5 19.5zm8.5-60.8c-5.7 1.2-11.1 5.6-14.5 9.8 3.3-5.3 8.5-9 15.3-10-.3 0-.5.1-.8.2zm69.7 55.1c-.4 3.2-.7 6.4-.7 9.7-.1.7-.1 1.4-.2 2.1-.1-2.6-.1-5.1-.1-7.7.3-1.5.6-2.8 1-4.1zm1.9 4-.3 3c0 .1-.1.2-.1.3.1-2.1.3-4.2.5-6.2.2-.7.3-1.3.5-2-.2 1.7-.4 3.3-.6 4.9zM76.5 41.9c-.8-.5-1.8-.8-2.7-.8.9 0 1.8 0 2.7.1v.7zm5.8-9c-2.3 1.6-4.2 3.7-5.1 6C80 22.4 100.6 19 114.6 22.6c4.7 1.2 9.1 3.3 12.8 6-2.9-1.6-6.2-2.7-9.8-3.2-.6-.1-1.2-.2-1.8-.2-.4-.1-.8-.2-1.3-.3-9.6-2.2-25.8-.9-32.2 8zm11.9-4.3h-.3c-.9.1-1.8.2-2.8.4 7.5-3.2 17-3.2 24.7-2.3.4 0 .8.1 1.2.2.1 0 .2.1.4.1 7.3 2.3 14.2 6.5 19.2 12.1.1.1.1.2.2.4-.6-.6-1.2-1.1-1.8-1.6-5.2-6.1-13.4-9.9-21.1-10.9-6.4-1-13.3-.4-19.7 1.6zm42.2 94.5c.2.6.3 1.2.5 1.7.6 3.1 1.6 6.2 2.9 8.9-1.8-3.3-2.9-6.9-3.4-10.6zm3.6 5.8c-1.1-3.2-1.9-6.5-2.2-10 .4 2.1.9 4.2 1.5 6.2.4 1.8.9 3.7 1.6 5.5-.3-.5-.6-1.1-.9-1.7z" fill="#2a232b" stroke-width="none" opacity="1"></path><path id="SvgjsPath9728" d="M154 138.8c-6.8-4.1-10.6-9.5-12.7-15.6-2.8-10.1-2.3-20.6-.6-31.2 1.7-11 4-22.9-.3-33.6-.2-3.2-.7-6.3-1.9-9.3-4-9.9-14.2-16.1-24.7-15.4-8.8.6-22 5.4-24.3 14.9-.3.9-.4 1.8-.4 2.8v.8c0 .1.1.2.2.3.2 1.3.7 2.9 1.9 3.4.2.1.6-.2.3-.4L91 55v-.2c-.2-.2-.3-.5-.4-.7-.2-.6-.4-1.3-.5-1.9v-.6c.1 1.2.5 2.5 1.2 3.7.2.3.8.1.6-.2-.4-.9-.6-1.8-.7-2.7.2 1.1.6 2.2 1.2 3.2.2.2.6.1.5-.2-.1-.4-.3-.8-.4-1.1.2.1.3.2.5.3 0 .2.1.4.1.6.1.3.7.3.6-.1v-.5c.1-.1.1-.2.1-.3.1 0 .3 0 .3-.2.1-2.1.6-4 1.4-5.7-.8 1.7-1.1 3.7-.8 5.9.1.4.6.3.6-.1-.1-7.2 4.9-11.3 11.3-12.9-4.9 3-8.1 8.7-5.8 15.2.1.3.7.3.7-.1-.5-5.4.3-11.2 5.6-14.2l1.2-.6c-4.1 3.4-4.6 9.5-3.4 14.5.1.4.7.3.7-.1-.4-5.1-.3-11.4 4.8-14.3 1-.6 2.1-.9 3.2-1.1 1.5 0 3 .2 4.5.4 1.8.4 3.4 1.2 4.8 2.1-.6-.1-1.2-.1-1.8-.1-7-.2-16.2 4.5-15 12.6.1.5.8.3.8-.1.9-10.6 12.3-12 20.5-8.7 1 1.1 1.9 2.4 2.5 3.6.1.2.3.2.5 0 .4 1 .8 1.9 1.1 2.9-1.1-.8-2.3-1.6-3.5-2.2-1.7-.9-3.8-1.4-5.8-1.3-3.8-.3-7.9.6-9.3 4.4-.3.4-.6.8-.9 1.3-.3.5.4.8.7.4 1.1-1.4 2.4-2.3 3.9-2.9-.7.5-1.2 1.1-1.7 1.9-.2.4.3.7.6.4l1.2-.9c0 .1.1.2.1.2-.1 0-.1.1-.2.1-.3.2-.1.7.2.6.4-.2.8-.3 1.2-.4.1.2.2.3.4.3 9.9-1.5 13.4 5.1 14.6 13.2v1.4c0 .1.1.2.2.2.7 6.3.2 13.4.3 18.2-3.2 19.1-4.4 47.9 17.8 55.8.4.1.6-.4.2-.6-6.7-3-11.2-7.9-14.1-13.8l.6.9c1.1 2.1 2.5 4 4.2 5.8.2.2.7-.1.5-.4-.1-.2-.2-.3-.3-.5.3.3.6.6 1 .9.2.2.5-.1.3-.3-1.3-1.3-2.4-2.6-3.4-4-6.9-12.1-6.6-25.6-3.1-39.3.4-1.4.8-2.9 1.2-4.3-.2 4.2-.6 8.4-.7 12.6-.3 9.4.7 20.5 5.7 28.8.6 1.1 1.2 2.3 1.9 3.4.1.2.4 0 .3-.2-.1-.1-.1-.2-.1-.3 2.2 2.8 5 5.1 8.6 6.7-.1.2.2-.3-.1-.6zM92.8 53c-1.7-2.5 3.2-9.2 4.2-10.3 1.2-1.2 2.5-2.2 4-3l1.2-.3c-5.4 2.8-9.6 7.8-9.4 13.6zm3.4-6.1c3.1-4.9 9.1-7.7 15.4-7.8h1.3c-6 .4-13.4 2.8-16.7 7.8zm33-1.6c-1.1-1-2.2-2-3.5-2.8-4.8-4.2-10.8-6.9-17.3-6.6 6-1.5 12.4-1.2 17.9 1.8 6.8 3.7 10 9.4 11.5 15.8-2.2-3.3-5.1-6.2-8.6-8.2zm6 27.8c-.1-3.1-.5-6.2-1.5-9v-2.2c.3.5.5 1 .8 1.5.2.5.4 1.1.6 1.6.2 2.7.2 5.4.1 8.1zm-1.4-19.7c-.1-.3-.3-.6-.5-1 1.1 1.9 2.1 4 2.9 6.1-.3-.4-.6-.8-.9-1.3-.4-1.2-.9-2.5-1.5-3.8zm-5.4 2.8c1.5.9 2.9 2.2 4 3.7.1.5.1.9.1 1.4-.9-2-2.4-3.7-4.1-5.1zm4.8 42.9c0-.3.1-.6.1-1 .6-4.9 1.6-9.8 2.4-14.7.1 0 .2-.1.2-.2 1-3.4 1.6-7.1 1.7-10.8.3 2.1.4 4.2.5 6.2-1.1 7-3.4 13.6-4.9 20.5zm5.7-28.9c-.4-2.3-1-4.5-1.8-6.6.1 0 .2-.1.2-.2 0-.7-.1-1.3-.2-1.9.1.2.2.4.4.6.7 2.7 1.2 5.4 1.4 8.1zm-2.1-13.4c-.6-1.5-1.3-2.9-2.1-4.2 1.8 2.2 3.1 4.7 4 7.3.1 1 .1 2.1.2 3.1-.5-2.1-1.2-4.2-2.1-6.2zm3 24c.4-2.1.6-4.3.7-6.5 0-1.4-.1-2.7-.2-4.1 0-.9.1-1.8.1-2.7v-1.6c.8 4.9.8 9.9.4 14.7-.4 4.8-1 9.6-1.5 14.4.2-4.8.5-9.6.5-14.2zM78.9 55.4c-13.4-6-22.8 11.8-21.8 22.7 0 .2.3.2.3 0 0-6 1-11.8 4.9-16.5 4-4.9 10.2-7.8 16.4-5.8.2.1.4-.3.2-.4zm62.6 52.8c-.3-8.6 2-16.2 4.7-24.2 4.4-13.2 5-29.4-3.6-41.2-7.5-10.2-22.5-13-34.4-11.3C97.1 33.1 86 41 86.6 53.2c0 .4.6.4.6 0 .1-17.1 18.4-22.4 32.5-20.9 7 .8 14.5 3 19.6 8 5.5 5.4 8.1 13.3 8.9 20.8.9 7.5-.3 14.7-2.6 21.8-1.9 5.7-3.9 11.2-4.7 17.1-1.4 11.5 1.1 23.1 7.1 33 .2.3.6 0 .5-.3-4.1-7.5-6.6-15.8-7-24.5zm-34.3-81.7c-12.8 1.8-26.5 11.9-24.1 26.4 0 .2.4.2.4-.1-.8-14.7 10.6-23 23.8-25.9.3-.1.2-.5-.1-.4zm-21.8 7.8C81.2 38.8 78.8 45 81 51c.1.2.4.1.3-.1-1.7-6.2.9-11.4 4.4-16.4.2-.2-.1-.4-.3-.2zm7.7-7.1c-7.9 2.5-15.4 8.5-15.2 17.5 0 .2.3.2.3 0 .5-9 7.6-13.9 15.1-17.1.2-.1 0-.5-.2-.4zM80.5 54.1c-4.7-4.3-10.8-2-15.7.8-6.6 3.7-11.3 8.5-12.3 16.3-1.1 8.7 2.3 17.5 4.7 25.7 3 10.5 5 21.6-.5 31.8-.2.4.4.8.6.4 7.3-12.2 2.5-26.2-1.1-38.7-2.4-8.3-5.1-18-.7-26.1 3.9-7 17.1-15.1 24.6-9.7.3 0 .6-.3.4-.5zm-3.4-4.5c-9.1-6.8-20.6 4.1-23.2 12.5-.1.2.3.3.4.1 3.3-8.3 13.1-17.5 22.6-12.2.2.2.5-.2.2-.4zm-.8-2.3C74.2 44 70 44.6 67 46.2c-.2.1-.1.4.1.3 3-1.1 6.7-2.1 9 .9 0 .1.3 0 .2-.1z" fill="#1b141c" stroke-width="none" opacity="1"></path><path id="SvgjsPath9729" d="M138 41.5c-.2-.2-.4.1-.3.3 7.5 9.6 10.3 21 8.6 33-.1.4.5.5.6.2 3-12-.7-24.7-8.9-33.5zm7 19.1c0-.1-.3-.1-.2 0 1 10.8.1 21.2-2.1 31.8-.1.3.3.4.4.1 3-10.3 3.5-21.2 1.9-31.9zm-10.5-17.4c-6.2-7.3-17.7-10.8-26.9-9-7.9 1.5-20 7.6-19.5 17 0 .5.7.5.7 0 .3-11.9 18.7-17.6 28.2-15.9 5.1.9 10.4 3.3 14.4 6.7 5 4.1 6.9 10.7 8.1 16.8 2.3 12-.2 23-3.4 34.5-2.4 8.8-4.3 17.8-1.5 26.8.1.3.6.2.5-.1-3.8-15.2 4.1-28.9 6.1-43.7 1.3-10.2.4-24.9-6.7-33.1zM79 54.2c-11.2-2-18.8 8.6-20.2 18.5-2 14.5 5 28.3 2.3 42.7.6-7.4-.4-14.9-2.9-22 0-.1-.3-.1-.2.1 3.9 12.6 3.4 25.4-1.1 37.8-.1.2.2.3.3.1 1.7-4.1 2.9-8.4 3.5-12.7l.1-.1c4.4-11 .5-22.7-.9-34-1.6-12.9 2.2-31.1 19-29.7.4-.1.4-.6.1-.7zm-1.7-3.9C67 47.2 57.7 54.6 54.2 63.9c-.1.2.2.3.3.1 4.3-9.1 12.2-15.3 22.7-13.3.3.1.4-.4.1-.4zM76 45.8c-7.6-1.5-13.7-.7-18.6 5.7-4.1 5.3-5.8 11.9-4.8 18.4 0 .2.3.1.3 0-.4-5.6.6-11.4 3.7-16.2 4.7-7.3 10.9-8.6 19.2-7.4.4.1.5-.4.2-.5zm53.1-9C114 22.1 87 31 84.2 52c0 .3.4.4.4.1 5-20.5 27.6-28.5 44.2-15.1.2.2.4 0 .3-.2zm-46.1 6c-1.7 2.2-3.4 5-1.7 7.6.1.2.4 0 .3-.2-1.5-2.5.2-5.1 1.6-7.3 0-.1-.1-.2-.2-.1zm68 99.8c-8.2-9.9-13.3-21.4-13.5-34.3 0-.2-.2-.2-.2 0-.1 12.8 4.3 25.5 13.5 34.6.1 0 .3-.2.2-.3zm-3.6-1.5c-5.2-3.4-9.1-7.7-11.4-13.6-.1-.3-.5-.2-.4.1 1.9 5.9 6 11.1 11.6 13.8.2.2.4-.1.2-.3z" fill="#3a353a" stroke-width="none" opacity="1"></path></g><g id="svga-group-glasses-single-move" transform="matrix(1,0,0,1,0,0)"><g id="svga-group-glasses-single"></g></g></g></g></g><rect id="svga-credit-rect" width="200" height="15" x="0" y="185" fill="#ecf0f1" opacity="0.5" style="display: none;"></rect><text id="svga-credit-text" font-family="Avenir Next, Roboto, Helvetica, Arial, sans-serif" font-size="10px" text-anchor="start" font-weight="400" size="10px" anchor="start" weight="400" fill="#333333" x="33.40447998046875" y="182.60824704170227" style="display: none;"><tspan id="SvgjsTspan9401" dy="13" x="33.40447998046875">Created on AvatarMaker.com</tspan></text></g><defs id="SvgjsDefs9348"></defs></svg>